<svg fill="none" height="26" viewBox="0 0 27 26" width="27" xmlns="http://www.w3.org/2000/svg"><path d="m15.0381 15.0674 2.1094 2.1094" stroke="#1b1b1b" stroke-linecap="round" stroke-width=".6"/><path d="m9.83496 9.97241 2.10934 2.10939" stroke="#1b1b1b" stroke-linecap="round" stroke-width=".6"/><g fill="#1b1b1b"><path clip-rule="evenodd" d="m21.8335 4.38501 1.2154 1.21534-7.5992 7.59915.7189.6953 7.5874-7.58734c.3905-.39053.3905-1.02369 0-1.41422l-1.2154-1.21534c-.3905-.39052-1.0237-.39052-1.4142 0l-7.6313 7.6313.7189.6953zm-10.0212 10.02119-.7128-.7014-7.50093 7.5009c-.39052.3906-.39052 1.0237 0 1.4143l1.21534 1.2153c.39052.3905 1.02369.3905 1.41421 0l7.52208-7.5221-.7128-.7014-7.51638 7.5164-1.21534-1.2153z" fill-rule="evenodd"/><path clip-rule="evenodd" d="m6.80898 2.81942c.14012.01545.28081.03871.42158.0701 2.08039.46383 3.39084 2.52634 2.92704 4.60673-.0897.40217-.23908.77557-.43681 1.11293l.73721.70866c.3117-.4762.5445-1.01564.6756-1.60397.5841-2.61945-1.066-5.21637-3.68543-5.80039-.63148-.14079-1.26165-.15174-1.86262-.05058.50668.19315.92729.53214 1.22343.95652zm-4.80491 1.74383c-.1543.3241-.27485.67048-.35628 1.0357-.58402 2.61944 1.06602 5.21635 3.68546 5.80035 1.42889.3186 2.85108-.0276 3.94349-.8333l-.68858-.73688c-.85423.59138-1.94329.83808-3.0373.59418-2.0185-.45005-3.31222-2.40505-2.96375-4.42117-.32932-.40579-.53681-.9061-.58304-1.43888z" fill-rule="evenodd"/><path clip-rule="evenodd" d="m3.08619 5.01404c.19983.55051.66788.99044 1.28187 1.12734.95597.21314 1.90372-.38905 2.11686-1.34502.15687-.70357-.1279-1.40269-.6703-1.80778.00034-.00038.00069-.00076.00103-.00114-.61868-.47412-.44413-1.05956-.23181-1.13228l.18856-.02484c1.2493.49135 1.98986 1.83225 1.68856 3.18365-.33333 1.49502-1.81549 2.43677-3.31051 2.10344-1.22987-.2742-2.08531-1.32588-2.16449-2.52259l.00431.00507c.17376-.29831.81906-.14696 1.09592.41415z" fill-rule="evenodd"/><path clip-rule="evenodd" d="m20.1051 24.0718c-.1404-.0132-.2814-.0342-.4227-.0633-2.0877-.4299-3.4315-2.4709-3.0015-4.5585.0831-.4036.2264-.7794.4186-1.1199l-.7486-.6966c-.304.4812-.5279 1.0244-.6495 1.6148-.5414 2.6285 1.1507 5.1983 3.7793 5.7397.6337.1305 1.2639.1312 1.8632.0203-.5098-.1849-.9359-.517-1.2388-.9365zm4.7759-1.8217c.149-.3266.2639-.6749.3394-1.0414.5413-2.6286-1.1507-5.1983-3.7793-5.7397-1.4339-.2953-2.8502.074-3.9294.8973l.7005.7256c.8445-.6051 1.9294-.8696 3.0272-.6435 2.0256.4172 3.3509 2.3509 3.0352 4.3724.3359.4004.5515.8973.6064 1.4293z" fill-rule="evenodd"/><path clip-rule="evenodd" d="m23.7913 21.8169c-.2088-.5472-.6839-.9795-1.3-1.1064-.9593-.1975-1.8972.42-2.0947 1.3793-.1455.706.1506 1.4004.6995 1.7966-.0003.0004-.0006.0008-.001.0012.6263.464.4613 1.0522.2502 1.1283l-.1881.0279c-1.2571-.4709-2.0194-1.7996-1.7401-3.1557.309-1.5003 1.7756-2.466 3.2759-2.157 1.2341.2542 2.1066 1.2918 2.2052 2.4871l-.0044-.005c-.1689.3011-.8166.1602-1.1025-.3963z" fill-rule="evenodd"/><path clip-rule="evenodd" d="m8.13866 10.8477 8.40734 8.4073.4891-.9251-8.10877-8.1088zm1.84056-2.00437 8.11238 8.11237 1.071-.3432-8.6274-8.62737z" fill-rule="evenodd"/><circle cx="8.86095" cy="8.94786" r=".333604"/><circle cx="18.1656" cy="18.1275" r=".333604"/></g></svg>