<svg fill="none" height="29" viewBox="0 0 17 29" width="17" xmlns="http://www.w3.org/2000/svg"><path d="m10.707 19.7704c-.1176-.2436-.3108-.4788-.5292-.6468-.26041-.1932-.52081-.2604-.73081-.2772v-.7392h-.6216v.7476c-.3948.0588-.6888.2352-.882.42-.2604.252-.4284.63-.4284 1.0836 0 .3024.0924.588.3528.8568.1932.1932.5376.4032.7896.5124l.5376.2268c.21.0924.378.1512.5628.3444.1764.1848.24361.3696.24361.6132 0 .2604-.05881.4704-.26041.672-.1932.2016-.3948.2688-.6636.2688-.294 0-.5376-.0924-.7308-.336-.1344-.1764-.2352-.4368-.2352-.714l-.8484.1848c.0336.3864.168.756.4704 1.092.3276.3696.6888.5208 1.092.5544v.8232h.6216v-.8484c.3444-.0504.64681-.1932.92401-.4872.3612-.3864.4872-.8148.4872-1.2768 0-.3696-.1008-.7392-.3864-1.0584-.2604-.294-.62161-.462-.93241-.588l-.42-.168c-.1512-.0588-.4116-.1848-.5292-.2856-.1596-.1344-.2184-.2772-.2184-.4704 0-.168.0336-.294.168-.4284.1176-.1176.3192-.2268.6216-.2268.2352 0 .4368.0588.6048.2016.126.1092.2016.2268.25201.3528z" fill="#1b1b1b"/><path d="m11.3406 6.95394c.146-.12659.1618-.34764.0352-.49371-.1266-.14608-.3476-.16187-.4937-.03527zm-1.87505 1.625 1.87505-1.625-.4585-.52898-1.875 1.625z" fill="#1b1b1b"/><path d="m6.21886 7.24212c-.1435-.12951-.36482-.11816-.49432.02535-.12951.1435-.11816.36482.02535.49432zm2.5625 2.3125-2.5625-2.3125-.46897.51967 2.5625 2.31251z" fill="#1b1b1b"/><g stroke="#1b1b1b"><path d="m8.79688 10.0644c0-1.99997-1.8125-6.75015-7.40626-6.75019.65626 6.03131 3.375 6.3752 7.40626 6.75019z"/><circle cx="9.23633" cy="21.752" r="6.5"/><path d="m8.95312 15.3145v-6.81255"/><path d="m8.95312 8.53318c0-1.65625 2.12498-7.749998 7.09378-7.375.7812 4.06252-3 7.375-7.09378 7.375z"/></g></svg>