<svg fill="none" height="32" viewBox="0 0 29 32" width="29" xmlns="http://www.w3.org/2000/svg"><path d="m9.32031 28.251c-.27614 0-.5.2238-.5.5 0 .2761.22386.5.5.5zm.81249 1c.2762 0 .5-.2239.5-.5 0-.2762-.2238-.5-.5-.5zm-.81249 0h.81249v-1h-.81249z" fill="#1b1b1b"/><path d="m8.41406 4.81348c-.27614 0-.5.22385-.5.5 0 .27614.22386.5.5.5zm2.68754 1c.2761 0 .5-.22386.5-.5 0-.27615-.2239-.5-.5-.5zm-2.68754 0h2.68754v-1h-2.68754z" fill="#1b1b1b"/><g stroke="#1b1b1b"><path d="m11.0078 13.1729h3.6724" stroke-linecap="round"/><path d="m11.0586 15.6104h1.9486" stroke-linecap="round"/><rect height="27" rx="1.5" width="15.9375" x="1.47656" y="3.6416"/><path d="m1.72656 7.0166h15.62504"/><path d="m1.78906 27.0166h15.37504"/><path d="m11.0586 17.9854h3.9972" stroke-linecap="round"/><path d="m11.0586 20.3916h1.8487" stroke-linecap="round"/><circle cx="6.41406" cy="20.0791" r="2.1875"/></g><path clip-rule="evenodd" d="m5.85156 17.4506c-.35877.0764-.69105.2244-.98117.4283-.0124-.0799-.01883-.1618-.01883-.2451v-4.9375c0-.8759.71005-1.5859 1.58594-1.5859s1.58594.71 1.58594 1.5859v4.9375c0 .0938-.00815.1858-.02379.2752-.28737-.2104-.61807-.365-.97621-.448v-4.7647c0-.3236-.26234-.5859-.58594-.5859s-.58594.2623-.58594.5859z" fill="#1b1b1b" fill-rule="evenodd"/><circle cx="6.4373" cy="20.0792" fill="#1b1b1b" r=".7"/><circle cx="22.8045" cy="7.9229" fill="#1b1b1b" r=".7"/><path d="m21.9194 10.6408-3.9442 2.4818c-.2909.183-.4674.5027-.4674.8464v6.8914c0 .5522.4477 1 1 1h8.5938c.5522 0 1-.4478 1-1v-6.8487c0-.3667-.2007-.7039-.5229-.8789l-4.6496-2.5244c-.3177-.1725-.7038-.1601-1.0097.0324z" stroke="#1b1b1b"/><rect height="4.4375" rx=".5" stroke="#1b1b1b" width="2.96875" x="20.9766" y="17.3604"/><path d="m19.3359 2.45426c1.924-2.140646 5.1681-2.062536 6.9375 0" stroke="#1b1b1b" stroke-linecap="round"/><path d="m20.2773 4.29035c1.4021-1.55999 3.7662-1.50307 5.0557 0" stroke="#1b1b1b" stroke-linecap="round"/><path d="m21.4141 5.94529c.7711-.858 2.0714-.82669 2.7806 0" stroke="#1b1b1b" stroke-linecap="round"/></svg>