<svg fill="none" height="30" viewBox="0 0 29 30" width="29" xmlns="http://www.w3.org/2000/svg" xmlns:xlink="http://www.w3.org/1999/xlink"><mask id="a" fill="#fff"><rect fill="#fff" height="2.53125" rx=".6" width="4" x="12.3516" y="20.083"/></mask><mask id="b" fill="#000" height="6" maskUnits="userSpaceOnUse" width="4" x="14.0391" y="3.73926"><path d="m14.0391 3.73926h4v6h-4z" fill="#fff"/><path clip-rule="evenodd" d="m15.9922 5.33926h.3281c.195 0 .3531.1581.3531.35312v3.54688h.6v-3.54688c0-.52639-.4267-.95312-.9531-.95312h-.3281c-.5264 0-.9531.42673-.9531.95312v3.54688h.6v-3.54688c0-.19502.1581-.35312.3531-.35312z" fill="#000" fill-rule="evenodd"/></mask><mask id="c" fill="#000" height="6" maskUnits="userSpaceOnUse" width="4" x="10.7578" y="3.73926"><path d="m10.7578 3.73926h4v6h-4z" fill="#fff"/><path clip-rule="evenodd" d="m12.7109 5.33926h.3282c.195 0 .3531.1581.3531.35312v3.54688h.6v-3.54688c0-.52639-.4267-.95312-.9531-.95312h-.3282c-.5264 0-.9531.42673-.9531.95312v3.54688h.6v-3.54688c0-.19502.1581-.35312.3531-.35312z" fill="#000" fill-rule="evenodd"/></mask><path clip-rule="evenodd" d="m27.6826 15.1895c0 7.3401-5.9504 13.2905-13.2905 13.2905-.115 0-.2296-.0015-.3439-.0044l.1882 1.0035c.0518.0006.1037.0009.1557.0009 7.8924 0 14.2905-6.3981 14.2905-14.2905 0-7.89249-6.3981-14.290574-14.2905-14.290574-7.89245 0-14.290538 6.398084-14.290538 14.290574 0 3.1552 1.022548 6.0715 2.754328 8.4358l.72355-.7059c-1.55979-2.178-2.47788-4.8467-2.47788-7.7299 0-7.3402 5.95037-13.29057 13.29054-13.29057 7.3401 0 13.2905 5.95037 13.2905 13.29057z" fill="#1b1b1b" fill-rule="evenodd"/><circle cx="3.97656" cy="24.3018" r="1.5" stroke="#1b1b1b"/><path d="m14.3516 22.6143v6.3671" stroke="#1b1b1b" stroke-linecap="round"/><rect height="2.53125" mask="url(#a)" rx=".6" stroke="#1b1b1b" stroke-width="2" width="4" x="12.3516" y="20.083"/><rect height="2.0625" rx="1.03125" stroke="#1b1b1b" width="9.96875" x="9.38281" y="9.73926"/><g fill="#1b1b1b"><path clip-rule="evenodd" d="m10.458 11.9267v.004.0131.0132.0132.0132.0132.0133.0133.0134.0133.0135.0134.0135.0135.0135.0136.0136.0137.0137.0137.0137.0138.0138.0138.0138.0139.0139.014.014.014.014.0141.0141.0141.0141.0142.0142.0142.0143.0142.0143.0144.0143.0144.0144.0145.0144.0145.0145.0145.0146.0146.0146.0146.0146.0147.0147.0147.0148.0147.0148.0148.0148.0149.0148.0149.0149.015.0149.015.0149.015.0151.015.0151.015.0151.0151.0152.0151.0152.0151.0152.0152.0153.0152.0153.0152.0153.0153.0153.0154.0153.0154.0153.0154.0154.0154.0154.0155.0154.0155.0154.0155.0155.0155.0155.0155.0156.0155.0156.0155.0156.0156.0156.0156.0156.0156.0156.0156.0157.0156.0157.0156.0157.0156.0157.0157.0157.0157.0157.0157.0157.0157.0157.0157.0157.0157.0158.0157.0157.0157.0158.0157.0157.0158.0157.0158.0157.0157.0158.0157.0158.0157.0157.0158.0157.0158.0157.0157.0157.0158.0157.0157.0157.0157.0158.0157.0157.0157.0157.0156.0157.0157.0157.0156.0157.0157.0156.0156.0157.0156.0156.0156.0156.0156.0156.0156.0156.0155.0156.0155.0155.0155.0156.0155.0154.0155.0155.0154.0155.0154.0154.0154.0154.0154.0154.0153.0154.0153.0153.0153.0153.0152.0153.0152.0153.0152.0151.0152.0152.0151.0151.0151.0151.0151.0151.015.015.015.015.0149.015.0149.0149.0149.0148.0149.0148.0148.0148.0147.0147.0148.0146.0147.0146.0147.0146.0145.0146.0145.0145.0145.0144.0145.0144.0143.0144.0143.0143.0143.0142.0143.0141.0142.0142.0141.014.0141.014.014.014.0139.0139.0139.0139.0138.0138.0137.0138.0137.0136.0137.0136.0135.0136.0135.0134.0135.0134.0134.0133.0133.0133.0132.0132.0132.0131.0131.0131.013.013.0129.013.0128.0129.0128.0128.0127.0127.0126.0126.0126.0126.0125.0124.0124.0124.0124.0123.0122.0122.0122.0122.012.0121.012.012.0119.0119.0118.0118.0118.0117.0117.0116.0116.0115.0115.0114.0114.0114.0113.0112.0113.0111.0111.0111.011.011.011.0108.0109.0108.0107.0107.0106.0106.0106.0105.0104.0104.0103.0103.0103.0101.0102.0101.01.01.0099.0099.0098.0098.0097.0097.0096.0095.0095.0095.0093.0094.0093.0092.0092.0091.009.009.009.0089.0088.0088.0087.0086.0086.0086.0084.0085.0083.0083.0083.0082.0081.008.008.008.0079.0078.0077.0077.0077.0075.0076.0074.0074.0073.0073.0072.0071.0071.007.0069.0069.0068.0067.0067.0066.0065.0065.0064.0064.0063.0062.0061.0061.006.0059.0059.0058.0057.0057.0056.0055.0055.0054.0053.0052.0052.0051.005.005.0049.0048.0048.0046.0046.0046.0044.0044.0043.0042.0042.0041c0 .515.2682 1.1966.6527 1.7403.3781.5347.9485 1.0463 1.6161 1.0463h.0035.0036.0036.0036.0036.0037.0036.0037.0037.0038.0037.0038.0038.0038.0038.0038.0039.0039.0039.0039.0039.004.004.004.004.004.0041.0041.0041.0041.0041.0041.0042.0042.0042.0042.0042.0043.0043.0043.0043.0043.0043.0044.0044.0044.0044.0044.0045.0044.0045.0045.0045.0046.0045.0046.0046.0046.0046.0046.0047.0047.0047.0047.0047.0047.0048.0047.0048.0048.0049.0048.0048.0049.0049.0049.0049.0049.005.0049.005.005.005.005.0051.005.0051.0051.0051.0051.0051.0052.0051.0052.0052.0052.0052.0053.0052.0053.0052.0053.0053.0054.0053.0053.0054.0054.0054.0054.0054.0054.0055.0054.0055.0055.0055.0055.0055.0056.0055.0056.0056.0056.0056.0056.0057.0056.0057.0056.0057.0057.0057.0058.0057.0057.0058.0058.0058.0058.0058.0058.0058.0059.0058.0059.0059.0059.0059.0059.0059.006.0059.006.006.0059.006.0061.006.006.006.0061.0061.006.0061.0061.0061.0062.0061.0061.0062.0061.0062.0062.0062.0062.0062.0062.0062.0063.0062.0063.0063.0063.0063.0063.0063.0063.0063.0064.0063.0064.0063.0064.0064.0064.0064.0064.0064.0065.0064.0065.0064.0065.0065.0064.0065.0065.0065.0066.0065.0065.0066.0065.0066.0065.0066.0066.0066.0066.0066.0066.0066.0066.0067.0066.0067.0066.0067.0067.0066.0067.0067.0067.0067.0067.0068.0067.0067.0068.0067.0068.0067.0068.0068.0067.0068.0068.0068.0068.0068.0068.0069.0068.0068.0069.0068.0069.0068.0069.0069.0068.0069.0069.0069.0069.0069.0069.0069.0069.0069.0069.007.0069.0069.007.0069.007.0069.007.0069.007.007.007.0069.007.007.007.007.007.007.007.007.007.0071.007.007.007.0071.007.0071.007.007.0071.007.0071.007.0071.0071.007.0071.0071.007.0071.0071.0071.0071.007.0071.0071.0071.0071.0071.0071.0071.0071.0071.0071.0071.0071.0071.0071.0071.0071.0072.0071.0071.0071.0071.0071.0072.0071.0071.0071.0072.0071.0071.0071.0072.0071.0071.0071.0072.0071.0071.0071.0072.0071.0071.0071.0072.0071.0071.0072.0071.0071.0071.0072.0071.0071.0071.0071.0072.0071.0071.0071.0071.0071.0072.0071.0071.0071.0071.0071.0071.0071.0071.0071.0071.0071.0071.0071.0071.0071.0071.0071.007.0071.0071.0071.007.0071.0071.007.0071.0071.007.0071.007.0071.007.0071.007.007.0071.007.007.007.0071.007.007.007.007.007.007.007.007.007.007.0069.007.007.0069.007.007.0069.007.0069.0069.007.0069.0069.0069.0069.007.0069.0069.0069.0068.0069.0069.0069.0068.0069.0069.0068.0069.0068.0068.0069.0068.0068.0068.0068.0068.0068.0068.0068.0067.0068.0068.0067.0068.0067.0068.0067.0067.0067.0067.0067.0067.0067.0067.0067.0066.0067.0066.0067.0066.0066.0067.0066.0066.0066.0066.0065.0066.0066.0065.0066.0065.0066.0065.0065.0065.0065.0065.0065.0065.0065.0064.0065c.6975 0 1.2441-.4917 1.6223-1.0021.3867-.522.6561-1.1407.7884-1.5551l.0143-.0913v-6.0777c-.029.0015-.0581.0023-.0874.0023h-.5126v6.0278c-.1224.3676-.3597.898-.6848 1.3368-.3469.4682-.7377.7593-1.1402.7593h-.0065-.0064-.0065-.0065-.0065-.0065-.0065-.0065-.0065-.0065-.0066-.0065-.0066-.0065-.0066-.0066-.0065-.0066-.0066-.0066-.0066-.0067-.0066-.0066-.0067-.0066-.0067-.0066-.0067-.0067-.0067-.0067-.0067-.0067-.0067-.0067-.0067-.0068-.0067-.0068-.0067-.0068-.0068-.0067-.0068-.0068-.0068-.0068-.0068-.0068-.0068-.0068-.0069-.0068-.0068-.0069-.0068-.0069-.0069-.0068-.0069-.0069-.0069-.0068-.0069-.0069-.0069-.007-.0069-.0069-.0069-.0069-.007-.0069-.0069-.007-.0069-.007-.007-.0069-.007-.007-.0069-.007-.007-.007-.007-.007-.007-.007-.007-.007-.007-.0071-.007-.007-.007-.0071-.007-.007-.0071-.007-.0071-.007-.0071-.007-.0071-.0071-.007-.0071-.0071-.007-.0071-.0071-.0071-.007-.0071-.0071-.0071-.0071-.0071-.0071-.0071-.0071-.0071-.0071-.0071-.0071-.0071-.0071-.0071-.0071-.0071-.0072-.0071-.0071-.0071-.0071-.0071-.0072-.0071-.0071-.0071-.0071-.0072-.0071-.0071-.0071-.0072-.0071-.0071-.0072-.0071-.0071-.0071-.0072-.0071-.0071-.0071-.0072-.0071-.0071-.0071-.0072-.0071-.0071-.0071-.0072-.0071-.0071-.0071-.0072-.0071-.0071-.0071-.0071-.0071-.0072-.0071-.0071-.0071-.0071-.0071-.0071-.0071-.0071-.0071-.0071-.0071-.0071-.0071-.0071-.0071-.0071-.007-.0071-.0071-.0071-.0071-.007-.0071-.0071-.007-.0071-.0071-.007-.0071-.007-.0071-.007-.007-.0071-.007-.0071-.007-.007-.007-.0071-.007-.007-.007-.007-.007-.007-.007-.007-.007-.0069-.007-.007-.007-.0069-.007-.0069-.007-.0069-.007-.0069-.0069-.007-.0069-.0069-.0069-.0069-.0069-.0069-.0069-.0069-.0069-.0069-.0068-.0069-.0069-.0068-.0069-.0068-.0069-.0068-.0068-.0069-.0068-.0068-.0068-.0068-.0068-.0068-.0067-.0068-.0068-.0067-.0068-.0067-.0068-.0067-.0067-.0068-.0067-.0067-.0067-.0067-.0067-.0066-.0067-.0067-.0066-.0067-.0066-.0067-.0066-.0066-.0066-.0066-.0066-.0066-.0066-.0066-.0065-.0066-.0065-.0066-.0065-.0065-.0066-.0065-.0065-.0065-.0064-.0065-.0065-.0064-.0065-.0064-.0065-.0064-.0064-.0064-.0064-.0064-.0064-.0063-.0064-.0063-.0064-.0063-.0063-.0063-.0063-.0063-.0063-.0063-.0063-.0062-.0063-.0062-.0062-.0062-.0062-.0062-.0062-.0062-.0061-.0062-.0061-.0061-.0062-.0061-.0061-.0061-.006-.0061-.0061-.006-.006-.006-.0061-.006-.0059-.006-.006-.0059-.006-.0059-.0059-.0059-.0059-.0059-.0059-.0058-.0059-.0058-.0058-.0058-.0058-.0058-.0058-.0058-.0057-.0057-.0058-.0057-.0057-.0057-.0056-.0057-.0056-.0057-.0056-.0056-.0056-.0056-.0056-.0055-.0056-.0055-.0055-.0055-.0055-.0055-.0054-.0055-.0054-.0054-.0054-.0054-.0054-.0054-.0053-.0053-.0054-.0053-.0053-.0052-.0053-.0052-.0053-.0052-.0052-.0052-.0052-.0051-.0052-.0051-.0051-.0051-.0051-.0051-.005-.0051-.005-.005-.005-.005-.0049-.005-.0049-.0049-.0049-.0049-.0049-.0048-.0048-.0049-.0048-.0048-.0047-.0048-.0047-.0047-.0047-.0047-.0047-.0047-.0046-.0046-.0046-.0046-.0046-.0045-.0046-.0045-.0045-.0045-.0044-.0045-.0044-.0044-.0044-.0044-.0044-.0043-.0043-.0043-.0043-.0043-.0043-.0042-.0042-.0042-.0042-.0042-.0041-.0041-.0041-.0041-.0041-.0041-.004-.004-.004-.004-.004-.0039-.0039-.0039-.0039-.0039-.0038-.0038-.0038-.0038-.0038-.0037-.0038-.0037-.0037-.0036-.0037-.0036-.0036-.0036-.0036-.0035c-.3637 0-.7777-.2999-1.1262-.7927-.3421-.4838-.5426-1.0455-.5426-1.3939v-.0041-.0042-.0042-.0043-.0044-.0044-.0046-.0046-.0046-.0048-.0048-.0049-.005-.005-.0051-.0052-.0052-.0053-.0054-.0055-.0055-.0056-.0057-.0057-.0058-.0059-.0059-.006-.0061-.0061-.0062-.0063-.0064-.0064-.0065-.0065-.0066-.0067-.0067-.0068-.0069-.0069-.007-.0071-.0071-.0072-.0073-.0073-.0074-.0074-.0076-.0075-.0077-.0077-.0077-.0078-.0079-.008-.008-.008-.0081-.0082-.0083-.0083-.0083-.0085-.0084-.0086-.0086-.0086-.0087-.0088-.0088-.0089-.009-.009-.009-.0091-.0092-.0092-.0093-.0094-.0093-.0095-.0095-.0095-.0096-.0097-.0097-.0098-.0098-.0099-.0099-.01-.01-.0101-.0102-.0101-.0103-.0103-.0103-.0104-.0104-.0105-.0106-.0106-.0106-.0107-.0107-.0108-.0109-.0108-.011-.011-.011-.0111-.0111-.0111-.0113-.0112-.0113-.0114-.0114-.0114-.0115-.0115-.0116-.0116-.0117-.0117-.0118-.0118-.0118-.0119-.0119-.012-.012-.0121-.012-.0122-.0122-.0122-.0122-.0123-.0124-.0124-.0124-.0124-.0125-.0126-.0126-.0126-.0126-.0127-.0127-.0128-.0128-.0129-.0128-.013-.0129-.013-.013-.0131-.0131-.0131-.0132-.0132-.0132-.0133-.0133-.0133-.0134-.0134-.0135-.0134-.0135-.0136-.0135-.0136-.0137-.0136-.0137-.0138-.0137-.0138-.0138-.0139-.0139-.0139-.0139-.014-.014-.014-.0141-.014-.0141-.0142-.0142-.0141-.0143-.0142-.0143-.0143-.0143-.0144-.0143-.0144-.0145-.0144-.0145-.0145-.0145-.0146-.0145-.0146-.0147-.0146-.0147-.0146-.0148-.0147-.0147-.0148-.0148-.0148-.0149-.0148-.0149-.0149-.0149-.015-.0149-.015-.015-.015-.015-.0151-.0151-.0151-.0151-.0151-.0151-.0152-.0152-.0151-.0152-.0153-.0152-.0153-.0152-.0153-.0153-.0153-.0153-.0154-.0153-.0154-.0154-.0154-.0154-.0154-.0154-.0155-.0154-.0155-.0155-.0154-.0155-.0156-.0155-.0155-.0155-.0156-.0155-.0156-.0156-.0156-.0156-.0156-.0156-.0156-.0156-.0157-.0156-.0156-.0157-.0157-.0156-.0157-.0157-.0157-.0156-.0157-.0157-.0157-.0157-.0158-.0157-.0157-.0157-.0157-.0158-.0157-.0157-.0157-.0158-.0157-.0158-.0157-.0157-.0158-.0157-.0158-.0157-.0157-.0158-.0157-.0158-.0157-.0157-.0158-.0157-.0157-.0157-.0158-.0157-.0157-.0157-.0157-.0157-.0157-.0157-.0157-.0157-.0157-.0157-.0157-.0156-.0157-.0156-.0157-.0156-.0157-.0156-.0156-.0156-.0156-.0156-.0156-.0156-.0156-.0155-.0156-.0155-.0156-.0155-.0155-.0155-.0155-.0155-.0154-.0155-.0154-.0155-.0154-.0154-.0154-.0154-.0153-.0154-.0153-.0154-.0153-.0153-.0153-.0152-.0153-.0152-.0153-.0152-.0152-.0151-.0152-.0151-.0152-.0151-.0151-.015-.0151-.015-.0151-.015-.0149-.015-.0149-.015-.0149-.0149-.0148-.0149-.0148-.0148-.0148-.0147-.0148-.0147-.0147-.0147-.0146-.0146-.0146-.0146-.0146-.0145-.0145-.0145-.0144-.0145-.0144-.0144-.0143-.0144-.0143-.0142-.0143-.0142-.0142-.0142-.0141-.0141-.0141-.0141-.014-.014-.014-.014-.0139-.0139-.0138-.0138-.0138-.0138-.0137-.0137-.0137-.0137-.0136-.0136-.0135-.0135-.0135-.0134-.0135-.0133-.0134-.0133-.0133-.0132-.0132-.0132-.0132-.0131-.0038h-.5751c-.0083 0-.0166-.0001-.0249-.0002z" fill-rule="evenodd"/><path d="m10.458 11.9267.0023-.15-.1523.15zm.6527 7.6778.1225-.0866zm6.4259.0442.1205.0893zm.7884-1.5551.1429.0456.0054-.0225zm.0143-.0913.1482.0231.0018-.0231zm0-6.0777h.15l-.1581-.1498zm-.6.0023v-.15l-.15.15zm0 6.0278.1423.0473.0077-.0473zm-.6848 1.3368.1205.0893zm-5.4539-.0334-.1225.0866zm-.5426-7.3312h.15l-.15-.15zm-.45.0038v-.004h-.3v.004zm0 .0131v-.0131h-.3v.0131zm0 .0132v-.0132h-.3v.0132zm0 .0132v-.0132h-.3v.0132zm0 .0132v-.0132h-.3v.0132zm0 .0132v-.0132h-.3v.0132zm0 .0133v-.0133h-.3v.0133zm0 .0133v-.0133h-.3v.0133zm0 .0134v-.0134h-.3v.0134zm0 .0133v-.0133h-.3v.0133zm0 .0135v-.0135h-.3v.0135zm0 .0134v-.0134h-.3v.0134zm0 .0135v-.0135h-.3v.0135zm0 .0135v-.0135h-.3v.0135zm0 .0135v-.0135h-.3v.0135zm0 .0136v-.0136h-.3v.0136zm0 .0136v-.0136h-.3v.0136zm0 .0137v-.0137h-.3v.0137zm0 .0137v-.0137h-.3v.0137zm0 .0137v-.0137h-.3v.0137zm0 .0137v-.0137h-.3v.0137zm0 .0138v-.0138h-.3v.0138zm0 .0138v-.0138h-.3v.0138zm0 .0138v-.0138h-.3v.0138zm0 .0138v-.0138h-.3v.0138zm0 .0139v-.0139h-.3v.0139zm0 .0139v-.0139h-.3v.0139zm0 .014v-.014h-.3v.014zm0 .014v-.014h-.3v.014zm0 .014v-.014h-.3v.014zm0 .014v-.014h-.3v.014zm0 .0141v-.0141h-.3v.0141zm0 .0141v-.0141h-.3v.0141zm0 .0141v-.0141h-.3v.0141zm0 .0141v-.0141h-.3v.0141zm0 .0142v-.0142h-.3v.0142zm0 .0142v-.0142h-.3v.0142zm0 .0142v-.0142h-.3v.0142zm0 .0143v-.0143h-.3v.0143zm0 .0142v-.0142h-.3v.0142zm0 .0143v-.0143h-.3v.0143zm0 .0144v-.0144h-.3v.0144zm0 .0143v-.0143h-.3v.0143zm0 .0144v-.0144h-.3v.0144zm0 .0144v-.0144h-.3v.0144zm0 .0145v-.0145h-.3v.0145zm0 .0144v-.0144h-.3v.0144zm0 .0145v-.0145h-.3v.0145zm0 .0145v-.0145h-.3v.0145zm0 .0145v-.0145h-.3v.0145zm0 .0146v-.0146h-.3v.0146zm0 .0146v-.0146h-.3v.0146zm0 .0146v-.0146h-.3v.0146zm0 .0146v-.0146h-.3v.0146zm0 .0146v-.0146h-.3v.0146zm0 .0147v-.0147h-.3v.0147zm0 .0147v-.0147h-.3v.0147zm0 .0147v-.0147h-.3v.0147zm0 .0148v-.0148h-.3v.0148zm0 .0147v-.0147h-.3v.0147zm0 .0148v-.0148h-.3v.0148zm0 .0148v-.0148h-.3v.0148zm0 .0148v-.0148h-.3v.0148zm0 .0149v-.0149h-.3v.0149zm0 .0148v-.0148h-.3v.0148zm0 .0149v-.0149h-.3v.0149zm0 .0149v-.0149h-.3v.0149zm0 .015v-.015h-.3v.015zm0 .0149v-.0149h-.3v.0149zm0 .015v-.015h-.3v.015zm0 .0149v-.0149h-.3v.0149zm0 .015v-.015h-.3v.015zm0 .0151v-.0151h-.3v.0151zm0 .015v-.015h-.3v.015zm0 .0151v-.0151h-.3v.0151zm0 .015v-.015h-.3v.015zm0 .0151v-.0151h-.3v.0151zm0 .0151v-.0151h-.3v.0151zm0 .0152v-.0152h-.3v.0152zm0 .0151v-.0151h-.3v.0151zm0 .0152v-.0152h-.3v.0152zm0 .0151v-.0151h-.3v.0151zm0 .0152v-.0152h-.3v.0152zm0 .0152v-.0152h-.3v.0152zm0 .0153v-.0153h-.3v.0153zm0 .0152v-.0152h-.3v.0152zm0 .0153v-.0153h-.3v.0153zm0 .0152v-.0152h-.3v.0152zm0 .0153v-.0153h-.3v.0153zm0 .0153v-.0153h-.3v.0153zm0 .0153v-.0153h-.3v.0153zm0 .0154v-.0154h-.3v.0154zm0 .0153v-.0153h-.3v.0153zm0 .0154v-.0154h-.3v.0154zm0 .0153v-.0153h-.3v.0153zm0 .0154v-.0154h-.3v.0154zm0 .0154v-.0154h-.3v.0154zm0 .0154v-.0154h-.3v.0154zm0 .0154v-.0154h-.3v.0154zm0 .0155v-.0155h-.3v.0155zm0 .0154v-.0154h-.3v.0154zm0 .0155v-.0155h-.3v.0155zm0 .0154v-.0154h-.3v.0154zm0 .0155v-.0155h-.3v.0155zm0 .0155v-.0155h-.3v.0155zm0 .0155v-.0155h-.3v.0155zm0 .0155v-.0155h-.3v.0155zm0 .0155v-.0155h-.3v.0155zm0 .0156v-.0156h-.3v.0156zm0 .0155v-.0155h-.3v.0155zm0 .0156v-.0156h-.3v.0156zm0 .0155v-.0155h-.3v.0155zm0 .0156v-.0156h-.3v.0156zm0 .0156v-.0156h-.3v.0156zm0 .0156v-.0156h-.3v.0156zm0 .0156v-.0156h-.3v.0156zm0 .0156v-.0156h-.3v.0156zm0 .0156v-.0156h-.3v.0156zm0 .0156v-.0156h-.3v.0156zm0 .0156v-.0156h-.3v.0156zm0 .0157v-.0157h-.3v.0157zm0 .0156v-.0156h-.3v.0156zm0 .0157v-.0157h-.3v.0157zm0 .0156v-.0156h-.3v.0156zm0 .0157v-.0157h-.3v.0157zm0 .0156v-.0156h-.3v.0156zm0 .0157v-.0157h-.3v.0157zm0 .0157v-.0157h-.3v.0157zm0 .0157v-.0157h-.3v.0157zm0 .0157v-.0157h-.3v.0157zm0 .0157v-.0157h-.3v.0157zm0 .0157v-.0157h-.3v.0157zm0 .0157v-.0157h-.3v.0157zm0 .0157v-.0157h-.3v.0157zm0 .0157v-.0157h-.3v.0157zm0 .0157v-.0157h-.3v.0157zm0 .0157v-.0157h-.3v.0157zm0 .0157v-.0157h-.3v.0157zm0 .0158v-.0158h-.3v.0158zm0 .0157v-.0157h-.3v.0157zm0 .0157v-.0157h-.3v.0157zm0 .0157v-.0157h-.3v.0157zm0 .0158v-.0158h-.3v.0158zm0 .0157v-.0157h-.3v.0157zm0 .0157v-.0157h-.3v.0157zm0 .0158v-.0158h-.3v.0158zm0 .0157v-.0157h-.3v.0157zm0 .0158v-.0158h-.3v.0158zm0 .0157v-.0157h-.3v.0157zm0 .0157v-.0157h-.3v.0157zm0 .0158v-.0158h-.3v.0158zm0 .0157v-.0157h-.3v.0157zm0 .0158v-.0158h-.3v.0158zm0 .0157v-.0157h-.3v.0157zm0 .0157v-.0157h-.3v.0157zm0 .0158v-.0158h-.3v.0158zm0 .0157v-.0157h-.3v.0157zm0 .0158v-.0158h-.3v.0158zm0 .0157v-.0157h-.3v.0157zm0 .0157v-.0157h-.3v.0157zm0 .0157v-.0157h-.3v.0157zm0 .0158v-.0158h-.3v.0158zm0 .0157v-.0157h-.3v.0157zm0 .0157v-.0157h-.3v.0157zm0 .0157v-.0157h-.3v.0157zm0 .0157v-.0157h-.3v.0157zm0 .0158v-.0158h-.3v.0158zm0 .0157v-.0157h-.3v.0157zm0 .0157v-.0157h-.3v.0157zm0 .0157v-.0157h-.3v.0157zm0 .0157v-.0157h-.3v.0157zm0 .0156v-.0156h-.3v.0156zm0 .0157v-.0157h-.3v.0157zm0 .0157v-.0157h-.3v.0157zm0 .0157v-.0157h-.3v.0157zm0 .0156v-.0156h-.3v.0156zm0 .0157v-.0157h-.3v.0157zm0 .0157v-.0157h-.3v.0157zm0 .0156v-.0156h-.3v.0156zm0 .0156v-.0156h-.3v.0156zm0 .0157v-.0157h-.3v.0157zm0 .0156v-.0156h-.3v.0156zm0 .0156v-.0156h-.3v.0156zm0 .0156v-.0156h-.3v.0156zm0 .0156v-.0156h-.3v.0156zm0 .0156v-.0156h-.3v.0156zm0 .0156v-.0156h-.3v.0156zm0 .0156v-.0156h-.3v.0156zm0 .0156v-.0156h-.3v.0156zm0 .0155v-.0155h-.3v.0155zm0 .0156v-.0156h-.3v.0156zm0 .0155v-.0155h-.3v.0155zm0 .0155v-.0155h-.3v.0155zm0 .0155v-.0155h-.3v.0155zm0 .0156v-.0156h-.3v.0156zm0 .0155v-.0155h-.3v.0155zm0 .0154v-.0154h-.3v.0154zm0 .0155v-.0155h-.3v.0155zm0 .0155v-.0155h-.3v.0155zm0 .0154v-.0154h-.3v.0154zm0 .0155v-.0155h-.3v.0155zm0 .0154v-.0154h-.3v.0154zm0 .0154v-.0154h-.3v.0154zm0 .0154v-.0154h-.3v.0154zm0 .0154v-.0154h-.3v.0154zm0 .0154v-.0154h-.3v.0154zm0 .0154v-.0154h-.3v.0154zm0 .0153v-.0153h-.3v.0153zm0 .0154v-.0154h-.3v.0154zm0 .0153v-.0153h-.3v.0153zm0 .0153v-.0153h-.3v.0153zm0 .0153v-.0153h-.3v.0153zm0 .0153v-.0153h-.3v.0153zm0 .0152v-.0152h-.3v.0152zm0 .0153v-.0153h-.3v.0153zm0 .0152v-.0152h-.3v.0152zm0 .0153v-.0153h-.3v.0153zm0 .0152v-.0152h-.3v.0152zm0 .0151v-.0151h-.3v.0151zm0 .0152v-.0152h-.3v.0152zm0 .0152v-.0152h-.3v.0152zm0 .0151v-.0151h-.3v.0151zm0 .0151v-.0151h-.3v.0151zm0 .0151v-.0151h-.3v.0151zm0 .0151v-.0151h-.3v.0151zm0 .0151v-.0151h-.3v.0151zm0 .0151v-.0151h-.3v.0151zm0 .015v-.015h-.3v.015zm0 .015v-.015h-.3v.015zm0 .015v-.015h-.3v.015zm0 .015v-.015h-.3v.015zm0 .0149v-.0149h-.3v.0149zm0 .015v-.015h-.3v.015zm0 .0149v-.0149h-.3v.0149zm0 .0149v-.0149h-.3v.0149zm0 .0149v-.0149h-.3v.0149zm0 .0148v-.0148h-.3v.0148zm0 .0149v-.0149h-.3v.0149zm0 .0148v-.0148h-.3v.0148zm0 .0148v-.0148h-.3v.0148zm0 .0148v-.0148h-.3v.0148zm0 .0147v-.0147h-.3v.0147zm0 .0147v-.0147h-.3v.0147zm0 .0148v-.0148h-.3v.0148zm0 .0146v-.0146h-.3v.0146zm0 .0147v-.0147h-.3v.0147zm0 .0146v-.0146h-.3v.0146zm0 .0147v-.0147h-.3v.0147zm0 .0146v-.0146h-.3v.0146zm0 .0145v-.0145h-.3v.0145zm0 .0146v-.0146h-.3v.0146zm0 .0145v-.0145h-.3v.0145zm0 .0145v-.0145h-.3v.0145zm0 .0145v-.0145h-.3v.0145zm0 .0144v-.0144h-.3v.0144zm0 .0145v-.0145h-.3v.0145zm0 .0144v-.0144h-.3v.0144zm0 .0143v-.0143h-.3v.0143zm0 .0144v-.0144h-.3v.0144zm0 .0143v-.0143h-.3v.0143zm0 .0143v-.0143h-.3v.0143zm0 .0143v-.0143h-.3v.0143zm0 .0142v-.0142h-.3v.0142zm0 .0143v-.0143h-.3v.0143zm0 .0141v-.0141h-.3v.0141zm0 .0142v-.0142h-.3v.0142zm0 .0142v-.0142h-.3v.0142zm0 .0141v-.0141h-.3v.0141zm0 .014v-.014h-.3v.014zm0 .0141v-.0141h-.3v.0141zm0 .014v-.014h-.3v.014zm0 .014v-.014h-.3v.014zm0 .014v-.014h-.3v.014zm0 .0139v-.0139h-.3v.0139zm0 .0139v-.0139h-.3v.0139zm0 .0139v-.0139h-.3v.0139zm0 .0139v-.0139h-.3v.0139zm0 .0138v-.0138h-.3v.0138zm0 .0138v-.0138h-.3v.0138zm0 .0137v-.0137h-.3v.0137zm0 .0138v-.0138h-.3v.0138zm0 .0137v-.0137h-.3v.0137zm0 .0136v-.0136h-.3v.0136zm0 .0137v-.0137h-.3v.0137zm0 .0136v-.0136h-.3v.0136zm0 .0135v-.0135h-.3v.0135zm0 .0136v-.0136h-.3v.0136zm0 .0135v-.0135h-.3v.0135zm0 .0134v-.0134h-.3v.0134zm0 .0135v-.0135h-.3v.0135zm0 .0134v-.0134h-.3v.0134zm0 .0134v-.0134h-.3v.0134zm0 .0133v-.0133h-.3v.0133zm0 .0133v-.0133h-.3v.0133zm0 .0133v-.0133h-.3v.0133zm0 .0132v-.0132h-.3v.0132zm0 .0132v-.0132h-.3v.0132zm0 .0132v-.0132h-.3v.0132zm0 .0131v-.0131h-.3v.0131zm0 .0131v-.0131h-.3v.0131zm0 .0131v-.0131h-.3v.0131zm0 .013v-.013h-.3v.013zm0 .013v-.013h-.3v.013zm0 .0129v-.0129h-.3v.0129zm0 .013v-.013h-.3v.013zm0 .0128v-.0128h-.3v.0128zm0 .0129v-.0129h-.3v.0129zm0 .0128v-.0128h-.3v.0128zm0 .0128v-.0128h-.3v.0128zm0 .0127v-.0127h-.3v.0127zm0 .0127v-.0127h-.3v.0127zm0 .0126v-.0126h-.3v.0126zm0 .0126v-.0126h-.3v.0126zm0 .0126v-.0126h-.3v.0126zm0 .0126v-.0126h-.3v.0126zm0 .0125v-.0125h-.3v.0125zm0 .0124v-.0124h-.3v.0124zm0 .0124v-.0124h-.3v.0124zm0 .0124v-.0124h-.3v.0124zm0 .0124v-.0124h-.3v.0124zm0 .0123v-.0123h-.3v.0123zm0 .0122v-.0122h-.3v.0122zm0 .0122v-.0122h-.3v.0122zm0 .0122v-.0122h-.3v.0122zm0 .0122v-.0122h-.3v.0122zm0 .012v-.012h-.3v.012zm0 .0121v-.0121h-.3v.0121zm0 .012v-.012h-.3v.012zm0 .012v-.012h-.3v.012zm0 .0119v-.0119h-.3v.0119zm0 .0119v-.0119h-.3v.0119zm0 .0118v-.0118h-.3v.0118zm0 .0118v-.0118h-.3v.0118zm0 .0118v-.0118h-.3v.0118zm0 .0117v-.0117h-.3v.0117zm0 .0117v-.0117h-.3v.0117zm0 .0116v-.0116h-.3v.0116zm0 .0116v-.0116h-.3v.0116zm0 .0115v-.0115h-.3v.0115zm0 .0115v-.0115h-.3v.0115zm0 .0114v-.0114h-.3v.0114zm0 .0114v-.0114h-.3v.0114zm0 .0114v-.0114h-.3v.0114zm0 .0113v-.0113h-.3v.0113zm0 .0112v-.0112h-.3v.0112zm0 .0113v-.0113h-.3v.0113zm0 .0111v-.0111h-.3v.0111zm0 .0111v-.0111h-.3v.0111zm0 .0111v-.0111h-.3v.0111zm0 .011v-.011h-.3v.011zm0 .011v-.011h-.3v.011zm0 .011v-.011h-.3v.011zm0 .0108v-.0108h-.3v.0108zm0 .0109v-.0109h-.3v.0109zm0 .0108v-.0108h-.3v.0108zm0 .0107v-.0107h-.3v.0107zm0 .0107v-.0107h-.3v.0107zm0 .0106v-.0106h-.3v.0106zm0 .0106v-.0106h-.3v.0106zm0 .0106v-.0106h-.3v.0106zm0 .0105v-.0105h-.3v.0105zm0 .0104v-.0104h-.3v.0104zm0 .0104v-.0104h-.3v.0104zm0 .0103v-.0103h-.3v.0103zm0 .0103v-.0103h-.3v.0103zm0 .0103v-.0103h-.3v.0103zm0 .0101v-.0101h-.3v.0101zm0 .0102v-.0102h-.3v.0102zm0 .0101v-.0101h-.3v.0101zm0 .01v-.01h-.3v.01zm0 .01v-.01h-.3v.01zm0 .0099v-.0099h-.3v.0099zm0 .0099v-.0099h-.3v.0099zm0 .0098v-.0098h-.3v.0098zm0 .0098v-.0098h-.3v.0098zm0 .0097v-.0097h-.3v.0097zm0 .0097v-.0097h-.3v.0097zm0 .0096v-.0096h-.3v.0096zm0 .0095v-.0095h-.3v.0095zm0 .0095v-.0095h-.3v.0095zm0 .0095v-.0095h-.3v.0095zm0 .0093v-.0093h-.3v.0093zm0 .0094v-.0094h-.3v.0094zm0 .0093v-.0093h-.3v.0093zm0 .0092v-.0092h-.3v.0092zm0 .0092v-.0092h-.3v.0092zm0 .0091v-.0091h-.3v.0091zm0 .009v-.009h-.3v.009zm0 .009v-.009h-.3v.009zm0 .009v-.009h-.3v.009zm0 .0089v-.0089h-.3v.0089zm0 .0088v-.0088h-.3v.0088zm0 .0088v-.0088h-.3v.0088zm0 .0087v-.0087h-.3v.0087zm0 .0086v-.0086h-.3v.0086zm0 .0086v-.0086h-.3v.0086zm0 .0086v-.0086h-.3v.0086zm0 .0084v-.0084h-.3v.0084zm0 .0085v-.0085h-.3v.0085zm0 .0083v-.0083h-.3v.0083zm0 .0083v-.0083h-.3v.0083zm0 .0083v-.0083h-.3v.0083zm0 .0082v-.0082h-.3v.0082zm0 .0081v-.0081h-.3v.0081zm0 .008v-.008h-.3v.008zm0 .008v-.008h-.3v.008zm0 .008v-.008h-.3v.008zm0 .0079v-.0079h-.3v.0079zm0 .0078v-.0078h-.3v.0078zm0 .0077v-.0077h-.3v.0077zm0 .0077v-.0077h-.3v.0077zm0 .0077v-.0077h-.3v.0077zm0 .0075v-.0075h-.3v.0075zm0 .0076v-.0076h-.3v.0076zm0 .0074v-.0074h-.3v.0074zm0 .0074v-.0074h-.3v.0074zm0 .0073v-.0073h-.3v.0073zm0 .0073v-.0073h-.3v.0073zm0 .0072v-.0072h-.3v.0072zm0 .0071v-.0071h-.3v.0071zm0 .0071v-.0071h-.3v.0071zm0 .007v-.007h-.3v.007zm0 .0069v-.0069h-.3v.0069zm0 .0069v-.0069h-.3v.0069zm0 .0068v-.0068h-.3v.0068zm0 .0067v-.0067h-.3v.0067zm0 .0067v-.0067h-.3v.0067zm0 .0066v-.0066h-.3v.0066zm0 .0065v-.0065h-.3v.0065zm0 .0065v-.0065h-.3v.0065zm0 .0064v-.0064h-.3v.0064zm0 .0064v-.0064h-.3v.0064zm0 .0063v-.0063h-.3v.0063zm0 .0062v-.0062h-.3v.0062zm0 .0061v-.0061h-.3v.0061zm0 .0061v-.0061h-.3v.0061zm0 .006v-.006h-.3v.006zm0 .0059v-.0059h-.3v.0059zm0 .0059v-.0059h-.3v.0059zm0 .0058v-.0058h-.3v.0058zm0 .0057v-.0057h-.3v.0057zm0 .0057v-.0057h-.3v.0057zm0 .0056v-.0056h-.3v.0056zm0 .0055v-.0055h-.3v.0055zm0 .0055v-.0055h-.3v.0055zm0 .0054v-.0054h-.3v.0054zm0 .0053v-.0053h-.3v.0053zm0 .0052v-.0052h-.3v.0052zm0 .0052v-.0052h-.3v.0052zm0 .0051v-.0051h-.3v.0051zm0 .005v-.005h-.3v.005zm0 .005v-.005h-.3v.005zm0 .0049v-.0049h-.3v.0049zm0 .0048v-.0048h-.3v.0048zm0 .0048v-.0048h-.3v.0048zm0 .0046v-.0046h-.3v.0046zm0 .0046v-.0046h-.3v.0046zm0 .0046v-.0046h-.3v.0046zm0 .0044v-.0044h-.3v.0044zm0 .0044v-.0044h-.3v.0044zm0 .0043v-.0043h-.3v.0043zm0 .0042v-.0042h-.3v.0042zm0 .0042v-.0042h-.3v.0042zm0 .0041v-.0041h-.3v.0041zm.6252 1.6537c-.3739-.5288-.6252-1.1804-.6252-1.6537h-.3c0 .5566.2852 1.2682.6802 1.8269zm1.4936.9829c-.5915 0-1.1228-.4585-1.4936-.9829l-.245.1732c.3854.545.9949 1.1097 1.7386 1.1097zm.0035 0h-.0035v.3h.0035zm.0036 0h-.0036v.3h.0036zm.0036 0h-.0036v.3h.0036zm.0036 0h-.0036v.3h.0036zm.0036 0h-.0036v.3h.0036zm.0037 0h-.0037v.3h.0037zm.0036 0h-.0036v.3h.0036zm.0037 0h-.0037v.3h.0037zm.0037 0h-.0037v.3h.0037zm.0038 0h-.0038v.3h.0038zm.0037 0h-.0037v.3h.0037zm.0038 0h-.0038v.3h.0038zm.0038 0h-.0038v.3h.0038zm.0038 0h-.0038v.3h.0038zm.0038 0h-.0038v.3h.0038zm.0038 0h-.0038v.3h.0038zm.0039 0h-.0039v.3h.0039zm.0039 0h-.0039v.3h.0039zm.0039 0h-.0039v.3h.0039zm.0039 0h-.0039v.3h.0039zm.0039 0h-.0039v.3h.0039zm.004 0h-.004v.3h.004zm.004 0h-.004v.3h.004zm.004 0h-.004v.3h.004zm.004 0h-.004v.3h.004zm.004 0h-.004v.3h.004zm.0041 0h-.0041v.3h.0041zm.0041 0h-.0041v.3h.0041zm.0041 0h-.0041v.3h.0041zm.0041 0h-.0041v.3h.0041zm.0041 0h-.0041v.3h.0041zm.0041 0h-.0041v.3h.0041zm.0042 0h-.0042v.3h.0042zm.0042 0h-.0042v.3h.0042zm.0042 0h-.0042v.3h.0042zm.0042 0h-.0042v.3h.0042zm.0042 0h-.0042v.3h.0042zm.0043 0h-.0043v.3h.0043zm.0043 0h-.0043v.3h.0043zm.0043 0h-.0043v.3h.0043zm.0043 0h-.0043v.3h.0043zm.0043 0h-.0043v.3h.0043zm.0043 0h-.0043v.3h.0043zm.0044 0h-.0044v.3h.0044zm.0044 0h-.0044v.3h.0044zm.0044 0h-.0044v.3h.0044zm.0044 0h-.0044v.3h.0044zm.0044 0h-.0044v.3h.0044zm.0045 0h-.0045v.3h.0045zm.0044 0h-.0044v.3h.0044zm.0045 0h-.0045v.3h.0045zm.0045 0h-.0045v.3h.0045zm.0045 0h-.0045v.3h.0045zm.0046 0h-.0046v.3h.0046zm.0045 0h-.0045v.3h.0045zm.0046 0h-.0046v.3h.0046zm.0046 0h-.0046v.3h.0046zm.0046 0h-.0046v.3h.0046zm.0046 0h-.0046v.3h.0046zm.0046 0h-.0046v.3h.0046zm.0047 0h-.0047v.3h.0047zm.0047 0h-.0047v.3h.0047zm.0047 0h-.0047v.3h.0047zm.0047 0h-.0047v.3h.0047zm.0047 0h-.0047v.3h.0047zm.0047 0h-.0047v.3h.0047zm.0048 0h-.0048v.3h.0048zm.0047 0h-.0047v.3h.0047zm.0048 0h-.0048v.3h.0048zm.0048 0h-.0048v.3h.0048zm.0049 0h-.0049v.3h.0049zm.0048 0h-.0048v.3h.0048zm.0048 0h-.0048v.3h.0048zm.0049 0h-.0049v.3h.0049zm.0049 0h-.0049v.3h.0049zm.0049 0h-.0049v.3h.0049zm.0049 0h-.0049v.3h.0049zm.0049 0h-.0049v.3h.0049zm.005 0h-.005v.3h.005zm.0049 0h-.0049v.3h.0049zm.005 0h-.005v.3h.005zm.005 0h-.005v.3h.005zm.005 0h-.005v.3h.005zm.005 0h-.005v.3h.005zm.0051 0h-.0051v.3h.0051zm.005 0h-.005v.3h.005zm.0051 0h-.0051v.3h.0051zm.0051 0h-.0051v.3h.0051zm.0051 0h-.0051v.3h.0051zm.0051 0h-.0051v.3h.0051zm.0051 0h-.0051v.3h.0051zm.0052 0h-.0052v.3h.0052zm.0051 0h-.0051v.3h.0051zm.0052 0h-.0052v.3h.0052zm.0052 0h-.0052v.3h.0052zm.0052 0h-.0052v.3h.0052zm.0052 0h-.0052v.3h.0052zm.0053 0h-.0053v.3h.0053zm.0052 0h-.0052v.3h.0052zm.0053 0h-.0053v.3h.0053zm.0052 0h-.0052v.3h.0052zm.0053 0h-.0053v.3h.0053zm.0053 0h-.0053v.3h.0053zm.0054 0h-.0054v.3h.0054zm.0053 0h-.0053v.3h.0053zm.0053 0h-.0053v.3h.0053zm.0054 0h-.0054v.3h.0054zm.0054 0h-.0054v.3h.0054zm.0054 0h-.0054v.3h.0054zm.0054 0h-.0054v.3h.0054zm.0054 0h-.0054v.3h.0054zm.0054 0h-.0054v.3h.0054zm.0055 0h-.0055v.3h.0055zm.0054 0h-.0054v.3h.0054zm.0055 0h-.0055v.3h.0055zm.0055 0h-.0055v.3h.0055zm.0055 0h-.0055v.3h.0055zm.0055 0h-.0055v.3h.0055zm.0055 0h-.0055v.3h.0055zm.0056 0h-.0056v.3h.0056zm.0055 0h-.0055v.3h.0055zm.0056 0h-.0056v.3h.0056zm.0056 0h-.0056v.3h.0056zm.0056 0h-.0056v.3h.0056zm.0056 0h-.0056v.3h.0056zm.0056 0h-.0056v.3h.0056zm.0057 0h-.0057v.3h.0057zm.0056 0h-.0056v.3h.0056zm.0057 0h-.0057v.3h.0057zm.0056 0h-.0056v.3h.0056zm.0057 0h-.0057v.3h.0057zm.0057 0h-.0057v.3h.0057zm.0057 0h-.0057v.3h.0057zm.0058 0h-.0058v.3h.0058zm.0057 0h-.0057v.3h.0057zm.0057 0h-.0057v.3h.0057zm.0058 0h-.0058v.3h.0058zm.0058 0h-.0058v.3h.0058zm.0058 0h-.0058v.3h.0058zm.0058 0h-.0058v.3h.0058zm.0058 0h-.0058v.3h.0058zm.0058 0h-.0058v.3h.0058zm.0058 0h-.0058v.3h.0058zm.0059 0h-.0059v.3h.0059zm.0058 0h-.0058v.3h.0058zm.0059 0h-.0059v.3h.0059zm.0059 0h-.0059v.3h.0059zm.0059 0h-.0059v.3h.0059zm.0059 0h-.0059v.3h.0059zm.0059 0h-.0059v.3h.0059zm.0059 0h-.0059v.3h.0059zm.006 0h-.006v.3h.006zm.0059 0h-.0059v.3h.0059zm.006 0h-.006v.3h.006zm.006 0h-.006v.3h.006zm.0059 0h-.0059v.3h.0059zm.006 0h-.006v.3h.006zm.0061 0h-.0061v.3h.0061zm.006 0h-.006v.3h.006zm.006 0h-.006v.3h.006zm.006 0h-.006v.3h.006zm.0061 0h-.0061v.3h.0061zm.0061 0h-.0061v.3h.0061zm.006 0h-.006v.3h.006zm.0061 0h-.0061v.3h.0061zm.0061 0h-.0061v.3h.0061zm.0061 0h-.0061v.3h.0061zm.0062 0h-.0062v.3h.0062zm.0061 0h-.0061v.3h.0061zm.0061 0h-.0061v.3h.0061zm.0062 0h-.0062v.3h.0062zm.0061 0h-.0061v.3h.0061zm.0062 0h-.0062v.3h.0062zm.0062 0h-.0062v.3h.0062zm.0062 0h-.0062v.3h.0062zm.0062 0h-.0062v.3h.0062zm.0062 0h-.0062v.3h.0062zm.0062 0h-.0062v.3h.0062zm.0062 0h-.0062v.3h.0062zm.0063 0h-.0063v.3h.0063zm.0062 0h-.0062v.3h.0062zm.0063 0h-.0063v.3h.0063zm.0063 0h-.0063v.3h.0063zm.0063 0h-.0063v.3h.0063zm.0063 0h-.0063v.3h.0063zm.0063 0h-.0063v.3h.0063zm.0063 0h-.0063v.3h.0063zm.0063 0h-.0063v.3h.0063zm.0063 0h-.0063v.3h.0063zm.0064 0h-.0064v.3h.0064zm.0063 0h-.0063v.3h.0063zm.0064 0h-.0064v.3h.0064zm.0063 0h-.0063v.3h.0063zm.0064 0h-.0064v.3h.0064zm.0064 0h-.0064v.3h.0064zm.0064 0h-.0064v.3h.0064zm.0064 0h-.0064v.3h.0064zm.0064 0h-.0064v.3h.0064zm.0064 0h-.0064v.3h.0064zm.0065 0h-.0065v.3h.0065zm.0064 0h-.0064v.3h.0064zm.0065 0h-.0065v.3h.0065zm.0064 0h-.0064v.3h.0064zm.0065 0h-.0065v.3h.0065zm.0065 0h-.0065v.3h.0065zm.0064 0h-.0064v.3h.0064zm.0065 0h-.0065v.3h.0065zm.0065 0h-.0065v.3h.0065zm.0065 0h-.0065v.3h.0065zm.0066 0h-.0066v.3h.0066zm.0065 0h-.0065v.3h.0065zm.0065 0h-.0065v.3h.0065zm.0066 0h-.0066v.3h.0066zm.0065 0h-.0065v.3h.0065zm.0066 0h-.0066v.3h.0066zm.0065 0h-.0065v.3h.0065zm.0066 0h-.0066v.3h.0066zm.0066 0h-.0066v.3h.0066zm.0066 0h-.0066v.3h.0066zm.0066 0h-.0066v.3h.0066zm.0066 0h-.0066v.3h.0066zm.0066 0h-.0066v.3h.0066zm.0066 0h-.0066v.3h.0066zm.0066 0h-.0066v.3h.0066zm.0067 0h-.0067v.3h.0067zm.0066 0h-.0066v.3h.0066zm.0067 0h-.0067v.3h.0067zm.0066 0h-.0066v.3h.0066zm.0067 0h-.0067v.3h.0067zm.0067 0h-.0067v.3h.0067zm.0066 0h-.0066v.3h.0066zm.0067 0h-.0067v.3h.0067zm.0067 0h-.0067v.3h.0067zm.0067 0h-.0067v.3h.0067zm.0067 0h-.0067v.3h.0067zm.0067 0h-.0067v.3h.0067zm.0068 0h-.0068v.3h.0068zm.0067 0h-.0067v.3h.0067zm.0067 0h-.0067v.3h.0067zm.0068 0h-.0068v.3h.0068zm.0067 0h-.0067v.3h.0067zm.0068 0h-.0068v.3h.0068zm.0067 0h-.0067v.3h.0067zm.0068 0h-.0068v.3h.0068zm.0068 0h-.0068v.3h.0068zm.0067 0h-.0067v.3h.0067zm.0068 0h-.0068v.3h.0068zm.0068 0h-.0068v.3h.0068zm.0068 0h-.0068v.3h.0068zm.0068 0h-.0068v.3h.0068zm.0068 0h-.0068v.3h.0068zm.0068 0h-.0068v.3h.0068zm.0069 0h-.0069v.3h.0069zm.0068 0h-.0068v.3h.0068zm.0068 0h-.0068v.3h.0068zm.0069 0h-.0069v.3h.0069zm.0068 0h-.0068v.3h.0068zm.0069 0h-.0069v.3h.0069zm.0068 0h-.0068v.3h.0068zm.0069 0h-.0069v.3h.0069zm.0069 0h-.0069v.3h.0069zm.0068 0h-.0068v.3h.0068zm.0069 0h-.0069v.3h.0069zm.0069 0h-.0069v.3h.0069zm.0069 0h-.0069v.3h.0069zm.0069 0h-.0069v.3h.0069zm.0069 0h-.0069v.3h.0069zm.0069 0h-.0069v.3h.0069zm.0069 0h-.0069v.3h.0069zm.0069 0h-.0069v.3h.0069zm.0069 0h-.0069v.3h.0069zm.0069 0h-.0069v.3h.0069zm.007 0h-.007v.3h.007zm.0069 0h-.0069v.3h.0069zm.0069 0h-.0069v.3h.0069zm.007 0h-.007v.3h.007zm.0069 0h-.0069v.3h.0069zm.007 0h-.007v.3h.007zm.0069 0h-.0069v.3h.0069zm.007 0h-.007v.3h.007zm.0069 0h-.0069v.3h.0069zm.007 0h-.007v.3h.007zm.007 0h-.007v.3h.007zm.007 0h-.007v.3h.007zm.0069 0h-.0069v.3h.0069zm.007 0h-.007v.3h.007zm.007 0h-.007v.3h.007zm.007 0h-.007v.3h.007zm.007 0h-.007v.3h.007zm.007 0h-.007v.3h.007zm.007 0h-.007v.3h.007zm.007 0h-.007v.3h.007zm.007 0h-.007v.3h.007zm.007 0h-.007v.3h.007zm.0071 0h-.0071v.3h.0071zm.007 0h-.007v.3h.007zm.007 0h-.007v.3h.007zm.007 0h-.007v.3h.007zm.0071 0h-.0071v.3h.0071zm.007 0h-.007v.3h.007zm.0071 0h-.0071v.3h.0071zm.007 0h-.007v.3h.007zm.007 0h-.007v.3h.007zm.0071 0h-.0071v.3h.0071zm.007 0h-.007v.3h.007zm.0071 0h-.0071v.3h.0071zm.007 0h-.007v.3h.007zm.0071 0h-.0071v.3h.0071zm.0071 0h-.0071v.3h.0071zm.007 0h-.007v.3h.007zm.0071 0h-.0071v.3h.0071zm.0071 0h-.0071v.3h.0071zm.007 0h-.007v.3h.007zm.0071 0h-.0071v.3h.0071zm.0071 0h-.0071v.3h.0071zm.0071 0h-.0071v.3h.0071zm.0071 0h-.0071v.3h.0071zm.007 0h-.007v.3h.007zm.0071 0h-.0071v.3h.0071zm.0071 0h-.0071v.3h.0071zm.0071 0h-.0071v.3h.0071zm.0071 0h-.0071v.3h.0071zm.0071 0h-.0071v.3h.0071zm.0071 0h-.0071v.3h.0071zm.0071 0h-.0071v.3h.0071zm.0071 0h-.0071v.3h.0071zm.0071 0h-.0071v.3h.0071zm.0071 0h-.0071v.3h.0071zm.0071 0h-.0071v.3h.0071zm.0071 0h-.0071v.3h.0071zm.0071 0h-.0071v.3h.0071zm.0071 0h-.0071v.3h.0071zm.0071 0h-.0071v.3h.0071zm.0071 0h-.0071v.3h.0071zm.0072 0h-.0072v.3h.0072zm.0071 0h-.0071v.3h.0071zm.0071 0h-.0071v.3h.0071zm.0071 0h-.0071v.3h.0071zm.0071 0h-.0071v.3h.0071zm.0071 0h-.0071v.3h.0071zm.0072 0h-.0072v.3h.0072zm.0071 0h-.0071v.3h.0071zm.0071 0h-.0071v.3h.0071zm.0071 0h-.0071v.3h.0071zm.0072 0h-.0072v.3h.0072zm.0071 0h-.0071v.3h.0071zm.0071 0h-.0071v.3h.0071zm.0071 0h-.0071v.3h.0071zm.0072 0h-.0072v.3h.0072zm.0071 0h-.0071v.3h.0071zm.0071 0h-.0071v.3h.0071zm.0071 0h-.0071v.3h.0071zm.0072 0h-.0072v.3h.0072zm.0071 0h-.0071v.3h.0071zm.0071 0h-.0071v.3h.0071zm.0071 0h-.0071v.3h.0071zm.0072 0h-.0072v.3h.0072zm.0071 0h-.0071v.3h.0071zm.0071 0h-.0071v.3h.0071zm.0071 0h-.0071v.3h.0071zm.0072 0h-.0072v.3h.0072zm.0071 0h-.0071v.3h.0071zm.0071 0h-.0071v.3h.0071zm.0072 0h-.0072v.3h.0072zm.0071 0h-.0071v.3h.0071zm.0071 0h-.0071v.3h.0071zm.0071 0h-.0071v.3h.0071zm.0072 0h-.0072v.3h.0072zm.0071 0h-.0071v.3h.0071zm.0071 0h-.0071v.3h.0071zm.0071 0h-.0071v.3h.0071zm.0071 0h-.0071v.3h.0071zm.0072 0h-.0072v.3h.0072zm.0071 0h-.0071v.3h.0071zm.0071 0h-.0071v.3h.0071zm.0071 0h-.0071v.3h.0071zm.0071 0h-.0071v.3h.0071zm.0071 0h-.0071v.3h.0071zm.0072 0h-.0072v.3h.0072zm.0071 0h-.0071v.3h.0071zm.0071 0h-.0071v.3h.0071zm.0071 0h-.0071v.3h.0071zm.0071 0h-.0071v.3h.0071zm.0071 0h-.0071v.3h.0071zm.0071 0h-.0071v.3h.0071zm.0071 0h-.0071v.3h.0071zm.0071 0h-.0071v.3h.0071zm.0071 0h-.0071v.3h.0071zm.0071 0h-.0071v.3h.0071zm.0071 0h-.0071v.3h.0071zm.0071 0h-.0071v.3h.0071zm.0071 0h-.0071v.3h.0071zm.0071 0h-.0071v.3h.0071zm.0071 0h-.0071v.3h.0071zm.0071 0h-.0071v.3h.0071zm.0071 0h-.0071v.3h.0071zm.007 0h-.007v.3h.007zm.0071 0h-.0071v.3h.0071zm.0071 0h-.0071v.3h.0071zm.0071 0h-.0071v.3h.0071zm.007 0h-.007v.3h.007zm.0071 0h-.0071v.3h.0071zm.0071 0h-.0071v.3h.0071zm.007 0h-.007v.3h.007zm.0071 0h-.0071v.3h.0071zm.0071 0h-.0071v.3h.0071zm.007 0h-.007v.3h.007zm.0071 0h-.0071v.3h.0071zm.007 0h-.007v.3h.007zm.0071 0h-.0071v.3h.0071zm.007 0h-.007v.3h.007zm.0071 0h-.0071v.3h.0071zm.007 0h-.007v.3h.007zm.007 0h-.007v.3h.007zm.0071 0h-.0071v.3h.0071zm.007 0h-.007v.3h.007zm.007 0h-.007v.3h.007zm.007 0h-.007v.3h.007zm.0071 0h-.0071v.3h.0071zm.007 0h-.007v.3h.007zm.007 0h-.007v.3h.007zm.007 0h-.007v.3h.007zm.007 0h-.007v.3h.007zm.007 0h-.007v.3h.007zm.007 0h-.007v.3h.007zm.007 0h-.007v.3h.007zm.007 0h-.007v.3h.007zm.007 0h-.007v.3h.007zm.007 0h-.007v.3h.007zm.0069 0h-.0069v.3h.0069zm.007 0h-.007v.3h.007zm.007 0h-.007v.3h.007zm.0069 0h-.0069v.3h.0069zm.007 0h-.007v.3h.007zm.007 0h-.007v.3h.007zm.0069 0h-.0069v.3h.0069zm.007 0h-.007v.3h.007zm.0069 0h-.0069v.3h.0069zm.0069 0h-.0069v.3h.0069zm.007 0h-.007v.3h.007zm.0069 0h-.0069v.3h.0069zm.0069 0h-.0069v.3h.0069zm.0069 0h-.0069v.3h.0069zm.0069 0h-.0069v.3h.0069zm.007 0h-.007v.3h.007zm.0069 0h-.0069v.3h.0069zm.0069 0h-.0069v.3h.0069zm.0069 0h-.0069v.3h.0069zm.0068 0h-.0068v.3h.0068zm.0069 0h-.0069v.3h.0069zm.0069 0h-.0069v.3h.0069zm.0069 0h-.0069v.3h.0069zm.0068 0h-.0068v.3h.0068zm.0069 0h-.0069v.3h.0069zm.0069 0h-.0069v.3h.0069zm.0068 0h-.0068v.3h.0068zm.0069 0h-.0069v.3h.0069zm.0068 0h-.0068v.3h.0068zm.0068 0h-.0068v.3h.0068zm.0069 0h-.0069v.3h.0069zm.0068 0h-.0068v.3h.0068zm.0068 0h-.0068v.3h.0068zm.0068 0h-.0068v.3h.0068zm.0068 0h-.0068v.3h.0068zm.0068 0h-.0068v.3h.0068zm.0068 0h-.0068v.3h.0068zm.0068 0h-.0068v.3h.0068zm.0068 0h-.0068v.3h.0068zm.0067 0h-.0067v.3h.0067zm.0068 0h-.0068v.3h.0068zm.0068 0h-.0068v.3h.0068zm.0067 0h-.0067v.3h.0067zm.0068 0h-.0068v.3h.0068zm.0067 0h-.0067v.3h.0067zm.0068 0h-.0068v.3h.0068zm.0067 0h-.0067v.3h.0067zm.0067 0h-.0067v.3h.0067zm.0067 0h-.0067v.3h.0067zm.0067 0h-.0067v.3h.0067zm.0067 0h-.0067v.3h.0067zm.0067 0h-.0067v.3h.0067zm.0067 0h-.0067v.3h.0067zm.0067 0h-.0067v.3h.0067zm.0067 0h-.0067v.3h.0067zm.0066 0h-.0066v.3h.0066zm.0067 0h-.0067v.3h.0067zm.0066 0h-.0066v.3h.0066zm.0067 0h-.0067v.3h.0067zm.0066 0h-.0066v.3h.0066zm.0066 0h-.0066v.3h.0066zm.0067 0h-.0067v.3h.0067zm.0066 0h-.0066v.3h.0066zm.0066 0h-.0066v.3h.0066zm.0066 0h-.0066v.3h.0066zm.0066 0h-.0066v.3h.0066zm.0065 0h-.0065v.3h.0065zm.0066 0h-.0066v.3h.0066zm.0066 0h-.0066v.3h.0066zm.0065 0h-.0065v.3h.0065zm.0066 0h-.0066v.3h.0066zm.0065 0h-.0065v.3h.0065zm.0066 0h-.0066v.3h.0066zm.0065 0h-.0065v.3h.0065zm.0065 0h-.0065v.3h.0065zm.0065 0h-.0065v.3h.0065zm.0065 0h-.0065v.3h.0065zm.0065 0h-.0065v.3h.0065zm.0065 0h-.0065v.3h.0065zm.0065 0h-.0065v.3h.0065zm.0065 0h-.0065v.3h.0065zm.0064 0h-.0064v.3h.0064zm.0065 0h-.0065v.3h.0065zm1.5017-.9414c-.3704.5-.8781.9414-1.5017.9414v.3c.7713 0 1.357-.5421 1.7428-1.0628zm.7661-1.5114c-.1286.4029-.3914 1.0058-.7661 1.5114l.2411.1786c.3988-.5383.6748-1.1729.8108-1.5988zm.0089-.0688-.0142.0913.2965.0462.0142-.0913zm-.0017-6.0546v6.0777h.3v-6.0777zm.1419-.1498c-.0263.0014-.0527.0021-.0793.0021v.3c.032 0 .0638-.0009.0954-.0026zm-.0793.0021h-.5126v.3h.5126zm-.3626 6.1778v-6.0278h-.3v6.0278zm-.7143 1.4261c.3369-.4547.5806-1.0003.7066-1.3788l-.2847-.0947c-.1188.3569-.3496.872-.663 1.295zm-1.2607.82c.476 0 .9058-.341 1.2607-.82l-.2411-.1785c-.3389.4574-.6907.6985-1.0196.6985zm-.0065 0h.0065v-.3h-.0065zm-.0064 0h.0064v-.3h-.0064zm-.0065 0h.0065v-.3h-.0065zm-.0065 0h.0065v-.3h-.0065zm-.0065 0h.0065v-.3h-.0065zm-.0065 0h.0065v-.3h-.0065zm-.0065 0h.0065v-.3h-.0065zm-.0065 0h.0065v-.3h-.0065zm-.0065 0h.0065v-.3h-.0065zm-.0065 0h.0065v-.3h-.0065zm-.0066 0h.0066v-.3h-.0066zm-.0065 0h.0065v-.3h-.0065zm-.0066 0h.0066v-.3h-.0066zm-.0065 0h.0065v-.3h-.0065zm-.0066 0h.0066v-.3h-.0066zm-.0066 0h.0066v-.3h-.0066zm-.0065 0h.0065v-.3h-.0065zm-.0066 0h.0066v-.3h-.0066zm-.0066 0h.0066v-.3h-.0066zm-.0066 0h.0066v-.3h-.0066zm-.0066 0h.0066v-.3h-.0066zm-.0067 0h.0067v-.3h-.0067zm-.0066 0h.0066v-.3h-.0066zm-.0066 0h.0066v-.3h-.0066zm-.0067 0h.0067v-.3h-.0067zm-.0066 0h.0066v-.3h-.0066zm-.0067 0h.0067v-.3h-.0067zm-.0066 0h.0066v-.3h-.0066zm-.0067 0h.0067v-.3h-.0067zm-.0067 0h.0067v-.3h-.0067zm-.0067 0h.0067v-.3h-.0067zm-.0067 0h.0067v-.3h-.0067zm-.0067 0h.0067v-.3h-.0067zm-.0067 0h.0067v-.3h-.0067zm-.0067 0h.0067v-.3h-.0067zm-.0067 0h.0067v-.3h-.0067zm-.0067 0h.0067v-.3h-.0067zm-.0068 0h.0068v-.3h-.0068zm-.0067 0h.0067v-.3h-.0067zm-.0068 0h.0068v-.3h-.0068zm-.0067 0h.0067v-.3h-.0067zm-.0068 0h.0068v-.3h-.0068zm-.0068 0h.0068v-.3h-.0068zm-.0067 0h.0067v-.3h-.0067zm-.0068 0h.0068v-.3h-.0068zm-.0068 0h.0068v-.3h-.0068zm-.0068 0h.0068v-.3h-.0068zm-.0068 0h.0068v-.3h-.0068zm-.0068 0h.0068v-.3h-.0068zm-.0068 0h.0068v-.3h-.0068zm-.0068 0h.0068v-.3h-.0068zm-.0068 0h.0068v-.3h-.0068zm-.0069 0h.0069v-.3h-.0069zm-.0068 0h.0068v-.3h-.0068zm-.0068 0h.0068v-.3h-.0068zm-.0069 0h.0069v-.3h-.0069zm-.0068 0h.0068v-.3h-.0068zm-.0069 0h.0069v-.3h-.0069zm-.0069 0h.0069v-.3h-.0069zm-.0068 0h.0068v-.3h-.0068zm-.0069 0h.0069v-.3h-.0069zm-.0069 0h.0069v-.3h-.0069zm-.0069 0h.0069v-.3h-.0069zm-.0068 0h.0068v-.3h-.0068zm-.0069 0h.0069v-.3h-.0069zm-.0069 0h.0069v-.3h-.0069zm-.0069 0h.0069v-.3h-.0069zm-.007 0h.007v-.3h-.007zm-.0069 0h.0069v-.3h-.0069zm-.0069 0h.0069v-.3h-.0069zm-.0069 0h.0069v-.3h-.0069zm-.0069 0h.0069v-.3h-.0069zm-.007 0h.007v-.3h-.007zm-.0069 0h.0069v-.3h-.0069zm-.0069 0h.0069v-.3h-.0069zm-.007 0h.007v-.3h-.007zm-.0069 0h.0069v-.3h-.0069zm-.007 0h.007v-.3h-.007zm-.007 0h.007v-.3h-.007zm-.0069 0h.0069v-.3h-.0069zm-.007 0h.007v-.3h-.007zm-.007 0h.007v-.3h-.007zm-.0069 0h.0069v-.3h-.0069zm-.007 0h.007v-.3h-.007zm-.007 0h.007v-.3h-.007zm-.007 0h.007v-.3h-.007zm-.007 0h.007v-.3h-.007zm-.007 0h.007v-.3h-.007zm-.007 0h.007v-.3h-.007zm-.007 0h.007v-.3h-.007zm-.007 0h.007v-.3h-.007zm-.007 0h.007v-.3h-.007zm-.007 0h.007v-.3h-.007zm-.0071 0h.0071v-.3h-.0071zm-.007 0h.007v-.3h-.007zm-.007 0h.007v-.3h-.007zm-.007 0h.007v-.3h-.007zm-.0071 0h.0071v-.3h-.0071zm-.007 0h.007v-.3h-.007zm-.007 0h.007v-.3h-.007zm-.0071 0h.0071v-.3h-.0071zm-.007 0h.007v-.3h-.007zm-.0071 0h.0071v-.3h-.0071zm-.007 0h.007v-.3h-.007zm-.0071 0h.0071v-.3h-.0071zm-.007 0h.007v-.3h-.007zm-.0071 0h.0071v-.3h-.0071zm-.0071 0h.0071v-.3h-.0071zm-.007 0h.007v-.3h-.007zm-.0071 0h.0071v-.3h-.0071zm-.0071 0h.0071v-.3h-.0071zm-.007 0h.007v-.3h-.007zm-.0071 0h.0071v-.3h-.0071zm-.0071 0h.0071v-.3h-.0071zm-.0071 0h.0071v-.3h-.0071zm-.007 0h.007v-.3h-.007zm-.0071 0h.0071v-.3h-.0071zm-.0071 0h.0071v-.3h-.0071zm-.0071 0h.0071v-.3h-.0071zm-.0071 0h.0071v-.3h-.0071zm-.0071 0h.0071v-.3h-.0071zm-.0071 0h.0071v-.3h-.0071zm-.0071 0h.0071v-.3h-.0071zm-.0071 0h.0071v-.3h-.0071zm-.0071 0h.0071v-.3h-.0071zm-.0071 0h.0071v-.3h-.0071zm-.0071 0h.0071v-.3h-.0071zm-.0071 0h.0071v-.3h-.0071zm-.0071 0h.0071v-.3h-.0071zm-.0071 0h.0071v-.3h-.0071zm-.0071 0h.0071v-.3h-.0071zm-.0071 0h.0071v-.3h-.0071zm-.0071 0h.0071v-.3h-.0071zm-.0072 0h.0072v-.3h-.0072zm-.0071 0h.0071v-.3h-.0071zm-.0071 0h.0071v-.3h-.0071zm-.0071 0h.0071v-.3h-.0071zm-.0071 0h.0071v-.3h-.0071zm-.0071 0h.0071v-.3h-.0071zm-.0072 0h.0072v-.3h-.0072zm-.0071 0h.0071v-.3h-.0071zm-.0071 0h.0071v-.3h-.0071zm-.0071 0h.0071v-.3h-.0071zm-.0071 0h.0071v-.3h-.0071zm-.0072 0h.0072v-.3h-.0072zm-.0071 0h.0071v-.3h-.0071zm-.0071 0h.0071v-.3h-.0071zm-.0071 0h.0071v-.3h-.0071zm-.0072 0h.0072v-.3h-.0072zm-.0071 0h.0071v-.3h-.0071zm-.0071 0h.0071v-.3h-.0071zm-.0072 0h.0072v-.3h-.0072zm-.0071 0h.0071v-.3h-.0071zm-.0071 0h.0071v-.3h-.0071zm-.0071 0h.0071v-.3h-.0071zm-.0072 0h.0072v-.3h-.0072zm-.0071 0h.0071v-.3h-.0071zm-.0071 0h.0071v-.3h-.0071zm-.0071 0h.0071v-.3h-.0071zm-.0072 0h.0072v-.3h-.0072zm-.0071 0h.0071v-.3h-.0071zm-.0071 0h.0071v-.3h-.0071zm-.0071 0h.0071v-.3h-.0071zm-.0072 0h.0072v-.3h-.0072zm-.0071 0h.0071v-.3h-.0071zm-.0071 0h.0071v-.3h-.0071zm-.0071 0h.0071v-.3h-.0071zm-.0072 0h.0072v-.3h-.0072zm-.0071 0h.0071v-.3h-.0071zm-.0071 0h.0071v-.3h-.0071zm-.0071 0h.0071v-.3h-.0071zm-.0072 0h.0072v-.3h-.0072zm-.0071 0h.0071v-.3h-.0071zm-.0071 0h.0071v-.3h-.0071zm-.0071 0h.0071v-.3h-.0071zm-.0071 0h.0071v-.3h-.0071zm-.0071 0h.0071v-.3h-.0071zm-.0072 0h.0072v-.3h-.0072zm-.0071 0h.0071v-.3h-.0071zm-.0071 0h.0071v-.3h-.0071zm-.0071 0h.0071v-.3h-.0071zm-.0071 0h.0071v-.3h-.0071zm-.0071 0h.0071v-.3h-.0071zm-.0071 0h.0071v-.3h-.0071zm-.0071 0h.0071v-.3h-.0071zm-.0071 0h.0071v-.3h-.0071zm-.0071 0h.0071v-.3h-.0071zm-.0071 0h.0071v-.3h-.0071zm-.0071 0h.0071v-.3h-.0071zm-.0071 0h.0071v-.3h-.0071zm-.0071 0h.0071v-.3h-.0071zm-.0071 0h.0071v-.3h-.0071zm-.0071 0h.0071v-.3h-.0071zm-.0071 0h.0071v-.3h-.0071zm-.007 0h.007v-.3h-.007zm-.0071 0h.0071v-.3h-.0071zm-.0071 0h.0071v-.3h-.0071zm-.0071 0h.0071v-.3h-.0071zm-.0071 0h.0071v-.3h-.0071zm-.007 0h.007v-.3h-.007zm-.0071 0h.0071v-.3h-.0071zm-.0071 0h.0071v-.3h-.0071zm-.007 0h.007v-.3h-.007zm-.0071 0h.0071v-.3h-.0071zm-.0071 0h.0071v-.3h-.0071zm-.007 0h.007v-.3h-.007zm-.0071 0h.0071v-.3h-.0071zm-.007 0h.007v-.3h-.007zm-.0071 0h.0071v-.3h-.0071zm-.007 0h.007v-.3h-.007zm-.007 0h.007v-.3h-.007zm-.0071 0h.0071v-.3h-.0071zm-.007 0h.007v-.3h-.007zm-.0071 0h.0071v-.3h-.0071zm-.007 0h.007v-.3h-.007zm-.007 0h.007v-.3h-.007zm-.007 0h.007v-.3h-.007zm-.0071 0h.0071v-.3h-.0071zm-.007 0h.007v-.3h-.007zm-.007 0h.007v-.3h-.007zm-.007 0h.007v-.3h-.007zm-.007 0h.007v-.3h-.007zm-.007 0h.007v-.3h-.007zm-.007 0h.007v-.3h-.007zm-.007 0h.007v-.3h-.007zm-.007 0h.007v-.3h-.007zm-.007 0h.007v-.3h-.007zm-.0069 0h.0069v-.3h-.0069zm-.007 0h.007v-.3h-.007zm-.007 0h.007v-.3h-.007zm-.007 0h.007v-.3h-.007zm-.0069 0h.0069v-.3h-.0069zm-.007 0h.007v-.3h-.007zm-.0069 0h.0069v-.3h-.0069zm-.007 0h.007v-.3h-.007zm-.0069 0h.0069v-.3h-.0069zm-.007 0h.007v-.3h-.007zm-.0069 0h.0069v-.3h-.0069zm-.0069 0h.0069v-.3h-.0069zm-.007 0h.007v-.3h-.007zm-.0069 0h.0069v-.3h-.0069zm-.0069 0h.0069v-.3h-.0069zm-.0069 0h.0069v-.3h-.0069zm-.0069 0h.0069v-.3h-.0069zm-.0069 0h.0069v-.3h-.0069zm-.0069 0h.0069v-.3h-.0069zm-.0069 0h.0069v-.3h-.0069zm-.0069 0h.0069v-.3h-.0069zm-.0069 0h.0069v-.3h-.0069zm-.0069 0h.0069v-.3h-.0069zm-.0068 0h.0068v-.3h-.0068zm-.0069 0h.0069v-.3h-.0069zm-.0069 0h.0069v-.3h-.0069zm-.0068 0h.0068v-.3h-.0068zm-.0069 0h.0069v-.3h-.0069zm-.0068 0h.0068v-.3h-.0068zm-.0069 0h.0069v-.3h-.0069zm-.0068 0h.0068v-.3h-.0068zm-.0068 0h.0068v-.3h-.0068zm-.0069 0h.0069v-.3h-.0069zm-.0068 0h.0068v-.3h-.0068zm-.0068 0h.0068v-.3h-.0068zm-.0068 0h.0068v-.3h-.0068zm-.0068 0h.0068v-.3h-.0068zm-.0068 0h.0068v-.3h-.0068zm-.0068 0h.0068v-.3h-.0068zm-.0067 0h.0067v-.3h-.0067zm-.0068 0h.0068v-.3h-.0068zm-.0068 0h.0068v-.3h-.0068zm-.0067 0h.0067v-.3h-.0067zm-.0068 0h.0068v-.3h-.0068zm-.0067 0h.0067v-.3h-.0067zm-.0068 0h.0068v-.3h-.0068zm-.0067 0h.0067v-.3h-.0067zm-.0067 0h.0067v-.3h-.0067zm-.0068 0h.0068v-.3h-.0068zm-.0067 0h.0067v-.3h-.0067zm-.0067 0h.0067v-.3h-.0067zm-.0067 0h.0067v-.3h-.0067zm-.0067 0h.0067v-.3h-.0067zm-.0067 0h.0067v-.3h-.0067zm-.0066 0h.0066v-.3h-.0066zm-.0067 0h.0067v-.3h-.0067zm-.0067 0h.0067v-.3h-.0067zm-.0066 0h.0066v-.3h-.0066zm-.0067 0h.0067v-.3h-.0067zm-.0066 0h.0066v-.3h-.0066zm-.0067 0h.0067v-.3h-.0067zm-.0066 0h.0066v-.3h-.0066zm-.0066 0h.0066v-.3h-.0066zm-.0066 0h.0066v-.3h-.0066zm-.0066 0h.0066v-.3h-.0066zm-.0066 0h.0066v-.3h-.0066zm-.0066 0h.0066v-.3h-.0066zm-.0066 0h.0066v-.3h-.0066zm-.0066 0h.0066v-.3h-.0066zm-.0065 0h.0065v-.3h-.0065zm-.0066 0h.0066v-.3h-.0066zm-.0065 0h.0065v-.3h-.0065zm-.0066 0h.0066v-.3h-.0066zm-.0065 0h.0065v-.3h-.0065zm-.0065 0h.0065v-.3h-.0065zm-.0066 0h.0066v-.3h-.0066zm-.0065 0h.0065v-.3h-.0065zm-.0065 0h.0065v-.3h-.0065zm-.0065 0h.0065v-.3h-.0065zm-.0064 0h.0064v-.3h-.0064zm-.0065 0h.0065v-.3h-.0065zm-.0065 0h.0065v-.3h-.0065zm-.0064 0h.0064v-.3h-.0064zm-.0065 0h.0065v-.3h-.0065zm-.0064 0h.0064v-.3h-.0064zm-.0065 0h.0065v-.3h-.0065zm-.0064 0h.0064v-.3h-.0064zm-.0064 0h.0064v-.3h-.0064zm-.0064 0h.0064v-.3h-.0064zm-.0064 0h.0064v-.3h-.0064zm-.0064 0h.0064v-.3h-.0064zm-.0064 0h.0064v-.3h-.0064zm-.0063 0h.0063v-.3h-.0063zm-.0064 0h.0064v-.3h-.0064zm-.0063 0h.0063v-.3h-.0063zm-.0064 0h.0064v-.3h-.0064zm-.0063 0h.0063v-.3h-.0063zm-.0063 0h.0063v-.3h-.0063zm-.0063 0h.0063v-.3h-.0063zm-.0063 0h.0063v-.3h-.0063zm-.0063 0h.0063v-.3h-.0063zm-.0063 0h.0063v-.3h-.0063zm-.0063 0h.0063v-.3h-.0063zm-.0063 0h.0063v-.3h-.0063zm-.0062 0h.0062v-.3h-.0062zm-.0063 0h.0063v-.3h-.0063zm-.0062 0h.0062v-.3h-.0062zm-.0062 0h.0062v-.3h-.0062zm-.0062 0h.0062v-.3h-.0062zm-.0062 0h.0062v-.3h-.0062zm-.0062 0h.0062v-.3h-.0062zm-.0062 0h.0062v-.3h-.0062zm-.0062 0h.0062v-.3h-.0062zm-.0061 0h.0061v-.3h-.0061zm-.0062 0h.0062v-.3h-.0062zm-.0061 0h.0061v-.3h-.0061zm-.0061 0h.0061v-.3h-.0061zm-.0062 0h.0062v-.3h-.0062zm-.0061 0h.0061v-.3h-.0061zm-.0061 0h.0061v-.3h-.0061zm-.0061 0h.0061v-.3h-.0061zm-.006 0h.006v-.3h-.006zm-.0061 0h.0061v-.3h-.0061zm-.0061 0h.0061v-.3h-.0061zm-.006 0h.006v-.3h-.006zm-.006 0h.006v-.3h-.006zm-.006 0h.006v-.3h-.006zm-.0061 0h.0061v-.3h-.0061zm-.006 0h.006v-.3h-.006zm-.0059 0h.0059v-.3h-.0059zm-.006 0h.006v-.3h-.006zm-.006 0h.006v-.3h-.006zm-.0059 0h.0059v-.3h-.0059zm-.006 0h.006v-.3h-.006zm-.0059 0h.0059v-.3h-.0059zm-.0059 0h.0059v-.3h-.0059zm-.0059 0h.0059v-.3h-.0059zm-.0059 0h.0059v-.3h-.0059zm-.0059 0h.0059v-.3h-.0059zm-.0059 0h.0059v-.3h-.0059zm-.0058 0h.0058v-.3h-.0058zm-.0059 0h.0059v-.3h-.0059zm-.0058 0h.0058v-.3h-.0058zm-.0058 0h.0058v-.3h-.0058zm-.0058 0h.0058v-.3h-.0058zm-.0058 0h.0058v-.3h-.0058zm-.0058 0h.0058v-.3h-.0058zm-.0058 0h.0058v-.3h-.0058zm-.0058 0h.0058v-.3h-.0058zm-.0057 0h.0057v-.3h-.0057zm-.0057 0h.0057v-.3h-.0057zm-.0058 0h.0058v-.3h-.0058zm-.0057 0h.0057v-.3h-.0057zm-.0057 0h.0057v-.3h-.0057zm-.0057 0h.0057v-.3h-.0057zm-.0056 0h.0056v-.3h-.0056zm-.0057 0h.0057v-.3h-.0057zm-.0056 0h.0056v-.3h-.0056zm-.0057 0h.0057v-.3h-.0057zm-.0056 0h.0056v-.3h-.0056zm-.0056 0h.0056v-.3h-.0056zm-.0056 0h.0056v-.3h-.0056zm-.0056 0h.0056v-.3h-.0056zm-.0056 0h.0056v-.3h-.0056zm-.0055 0h.0055v-.3h-.0055zm-.0056 0h.0056v-.3h-.0056zm-.0055 0h.0055v-.3h-.0055zm-.0055 0h.0055v-.3h-.0055zm-.0055 0h.0055v-.3h-.0055zm-.0055 0h.0055v-.3h-.0055zm-.0055 0h.0055v-.3h-.0055zm-.0054 0h.0054v-.3h-.0054zm-.0055 0h.0055v-.3h-.0055zm-.0054 0h.0054v-.3h-.0054zm-.0054 0h.0054v-.3h-.0054zm-.0054 0h.0054v-.3h-.0054zm-.0054 0h.0054v-.3h-.0054zm-.0054 0h.0054v-.3h-.0054zm-.0054 0h.0054v-.3h-.0054zm-.0053 0h.0053v-.3h-.0053zm-.0053 0h.0053v-.3h-.0053zm-.0054 0h.0054v-.3h-.0054zm-.0053 0h.0053v-.3h-.0053zm-.0053 0h.0053v-.3h-.0053zm-.0052 0h.0052v-.3h-.0052zm-.0053 0h.0053v-.3h-.0053zm-.0052 0h.0052v-.3h-.0052zm-.0053 0h.0053v-.3h-.0053zm-.0052 0h.0052v-.3h-.0052zm-.0052 0h.0052v-.3h-.0052zm-.0052 0h.0052v-.3h-.0052zm-.0052 0h.0052v-.3h-.0052zm-.0051 0h.0051v-.3h-.0051zm-.0052 0h.0052v-.3h-.0052zm-.0051 0h.0051v-.3h-.0051zm-.0051 0h.0051v-.3h-.0051zm-.0051 0h.0051v-.3h-.0051zm-.0051 0h.0051v-.3h-.0051zm-.0051 0h.0051v-.3h-.0051zm-.005 0h.005v-.3h-.005zm-.0051 0h.0051v-.3h-.0051zm-.005 0h.005v-.3h-.005zm-.005 0h.005v-.3h-.005zm-.005 0h.005v-.3h-.005zm-.005 0h.005v-.3h-.005zm-.0049 0h.0049v-.3h-.0049zm-.005 0h.005v-.3h-.005zm-.0049 0h.0049v-.3h-.0049zm-.0049 0h.0049v-.3h-.0049zm-.0049 0h.0049v-.3h-.0049zm-.0049 0h.0049v-.3h-.0049zm-.0049 0h.0049v-.3h-.0049zm-.0048 0h.0048v-.3h-.0048zm-.0048 0h.0048v-.3h-.0048zm-.0049 0h.0049v-.3h-.0049zm-.0048 0h.0048v-.3h-.0048zm-.0048 0h.0048v-.3h-.0048zm-.0047 0h.0047v-.3h-.0047zm-.0048 0h.0048v-.3h-.0048zm-.0047 0h.0047v-.3h-.0047zm-.0047 0h.0047v-.3h-.0047zm-.0047 0h.0047v-.3h-.0047zm-.0047 0h.0047v-.3h-.0047zm-.0047 0h.0047v-.3h-.0047zm-.0047 0h.0047v-.3h-.0047zm-.0046 0h.0046v-.3h-.0046zm-.0046 0h.0046v-.3h-.0046zm-.0046 0h.0046v-.3h-.0046zm-.0046 0h.0046v-.3h-.0046zm-.0046 0h.0046v-.3h-.0046zm-.0045 0h.0045v-.3h-.0045zm-.0046 0h.0046v-.3h-.0046zm-.0045 0h.0045v-.3h-.0045zm-.0045 0h.0045v-.3h-.0045zm-.0045 0h.0045v-.3h-.0045zm-.0044 0h.0044v-.3h-.0044zm-.0045 0h.0045v-.3h-.0045zm-.0044 0h.0044v-.3h-.0044zm-.0044 0h.0044v-.3h-.0044zm-.0044 0h.0044v-.3h-.0044zm-.0044 0h.0044v-.3h-.0044zm-.0044 0h.0044v-.3h-.0044zm-.0043 0h.0043v-.3h-.0043zm-.0043 0h.0043v-.3h-.0043zm-.0043 0h.0043v-.3h-.0043zm-.0043 0h.0043v-.3h-.0043zm-.0043 0h.0043v-.3h-.0043zm-.0043 0h.0043v-.3h-.0043zm-.0042 0h.0042v-.3h-.0042zm-.0042 0h.0042v-.3h-.0042zm-.0042 0h.0042v-.3h-.0042zm-.0042 0h.0042v-.3h-.0042zm-.0042 0h.0042v-.3h-.0042zm-.0041 0h.0041v-.3h-.0041zm-.0041 0h.0041v-.3h-.0041zm-.0041 0h.0041v-.3h-.0041zm-.0041 0h.0041v-.3h-.0041zm-.0041 0h.0041v-.3h-.0041zm-.0041 0h.0041v-.3h-.0041zm-.004 0h.004v-.3h-.004zm-.004 0h.004v-.3h-.004zm-.004 0h.004v-.3h-.004zm-.004 0h.004v-.3h-.004zm-.004 0h.004v-.3h-.004zm-.0039 0h.0039v-.3h-.0039zm-.0039 0h.0039v-.3h-.0039zm-.0039 0h.0039v-.3h-.0039zm-.0039 0h.0039v-.3h-.0039zm-.0039 0h.0039v-.3h-.0039zm-.0038 0h.0038v-.3h-.0038zm-.0038 0h.0038v-.3h-.0038zm-.0038 0h.0038v-.3h-.0038zm-.0038 0h.0038v-.3h-.0038zm-.0038 0h.0038v-.3h-.0038zm-.0037 0h.0037v-.3h-.0037zm-.0038 0h.0038v-.3h-.0038zm-.0037 0h.0037v-.3h-.0037zm-.0037 0h.0037v-.3h-.0037zm-.0036 0h.0036v-.3h-.0036zm-.0037 0h.0037v-.3h-.0037zm-.0036 0h.0036v-.3h-.0036zm-.0036 0h.0036v-.3h-.0036zm-.0036 0h.0036v-.3h-.0036zm-.0036 0h.0036v-.3h-.0036zm-.0035 0h.0035v-.3h-.0035zm-1.2487-.8561c.1816.2567.3836.4683.5931.6169.2085.1479.4328.2392.6556.2392v-.3c-.141 0-.3055-.0587-.482-.1839-.1756-.1246-.3548-.3094-.5217-.5454zm-.5701-1.4805c0 .39.2174.9817.5701 1.4805l.245-.1732c-.3315-.4688-.5151-1.0005-.5151-1.3073zm0-.0041v.0041h.3v-.0041zm0-.0042v.0042h.3v-.0042zm0-.0042v.0042h.3v-.0042zm0-.0043v.0043h.3v-.0043zm0-.0044v.0044h.3v-.0044zm0-.0044v.0044h.3v-.0044zm0-.0046v.0046h.3v-.0046zm0-.0046v.0046h.3v-.0046zm0-.0046v.0046h.3v-.0046zm0-.0048v.0048h.3v-.0048zm0-.0048v.0048h.3v-.0048zm0-.0049v.0049h.3v-.0049zm0-.005v.005h.3v-.005zm0-.005v.005h.3v-.005zm0-.0051v.0051h.3v-.0051zm0-.0052v.0052h.3v-.0052zm0-.0052v.0052h.3v-.0052zm0-.0053v.0053h.3v-.0053zm0-.0054v.0054h.3v-.0054zm0-.0055v.0055h.3v-.0055zm0-.0055v.0055h.3v-.0055zm0-.0056v.0056h.3v-.0056zm0-.0057v.0057h.3v-.0057zm0-.0057v.0057h.3v-.0057zm0-.0058v.0058h.3v-.0058zm0-.0059v.0059h.3v-.0059zm0-.0059v.0059h.3v-.0059zm0-.006v.006h.3v-.006zm0-.0061v.0061h.3v-.0061zm0-.0061v.0061h.3v-.0061zm0-.0062v.0062h.3v-.0062zm0-.0063v.0063h.3v-.0063zm0-.0064v.0064h.3v-.0064zm0-.0064v.0064h.3v-.0064zm0-.0065v.0065h.3v-.0065zm0-.0065v.0065h.3v-.0065zm0-.0066v.0066h.3v-.0066zm0-.0067v.0067h.3v-.0067zm0-.0067v.0067h.3v-.0067zm0-.0068v.0068h.3v-.0068zm0-.0069v.0069h.3v-.0069zm0-.0069v.0069h.3v-.0069zm0-.007v.007h.3v-.007zm0-.0071v.0071h.3v-.0071zm0-.0071v.0071h.3v-.0071zm0-.0072v.0072h.3v-.0072zm0-.0073v.0073h.3v-.0073zm0-.0073v.0073h.3v-.0073zm0-.0074v.0074h.3v-.0074zm0-.0074v.0074h.3v-.0074zm0-.0076v.0076h.3v-.0076zm0-.0075v.0075h.3v-.0075zm0-.0077v.0077h.3v-.0077zm0-.0077v.0077h.3v-.0077zm0-.0077v.0077h.3v-.0077zm0-.0078v.0078h.3v-.0078zm0-.0079v.0079h.3v-.0079zm0-.008v.008h.3v-.008zm0-.008v.008h.3v-.008zm0-.008v.008h.3v-.008zm0-.0081v.0081h.3v-.0081zm0-.0082v.0082h.3v-.0082zm0-.0083v.0083h.3v-.0083zm0-.0083v.0083h.3v-.0083zm0-.0083v.0083h.3v-.0083zm0-.0085v.0085h.3v-.0085zm0-.0084v.0084h.3v-.0084zm0-.0086v.0086h.3v-.0086zm0-.0086v.0086h.3v-.0086zm0-.0086v.0086h.3v-.0086zm0-.0087v.0087h.3v-.0087zm0-.0088v.0088h.3v-.0088zm0-.0088v.0088h.3v-.0088zm0-.0089v.0089h.3v-.0089zm0-.009v.009h.3v-.009zm0-.009v.009h.3v-.009zm0-.009v.009h.3v-.009zm0-.0091v.0091h.3v-.0091zm0-.0092v.0092h.3v-.0092zm0-.0092v.0092h.3v-.0092zm0-.0093v.0093h.3v-.0093zm0-.0094v.0094h.3v-.0094zm0-.0093v.0093h.3v-.0093zm0-.0095v.0095h.3v-.0095zm0-.0095v.0095h.3v-.0095zm0-.0095v.0095h.3v-.0095zm0-.0096v.0096h.3v-.0096zm0-.0097v.0097h.3v-.0097zm0-.0097v.0097h.3v-.0097zm0-.0098v.0098h.3v-.0098zm0-.0098v.0098h.3v-.0098zm0-.0099v.0099h.3v-.0099zm0-.0099v.0099h.3v-.0099zm0-.01v.01h.3v-.01zm0-.01v.01h.3v-.01zm0-.0101v.0101h.3v-.0101zm0-.0102v.0102h.3v-.0102zm0-.0101v.0101h.3v-.0101zm0-.0103v.0103h.3v-.0103zm0-.0103v.0103h.3v-.0103zm0-.0103v.0103h.3v-.0103zm0-.0104v.0104h.3v-.0104zm0-.0104v.0104h.3v-.0104zm0-.0105v.0105h.3v-.0105zm0-.0106v.0106h.3v-.0106zm0-.0106v.0106h.3v-.0106zm0-.0106v.0106h.3v-.0106zm0-.0107v.0107h.3v-.0107zm0-.0107v.0107h.3v-.0107zm0-.0108v.0108h.3v-.0108zm0-.0109v.0109h.3v-.0109zm0-.0108v.0108h.3v-.0108zm0-.011v.011h.3v-.011zm0-.011v.011h.3v-.011zm0-.011v.011h.3v-.011zm0-.0111v.0111h.3v-.0111zm0-.0111v.0111h.3v-.0111zm0-.0111v.0111h.3v-.0111zm0-.0113v.0113h.3v-.0113zm0-.0112v.0112h.3v-.0112zm0-.0113v.0113h.3v-.0113zm0-.0114v.0114h.3v-.0114zm0-.0114v.0114h.3v-.0114zm0-.0114v.0114h.3v-.0114zm0-.0115v.0115h.3v-.0115zm0-.0115v.0115h.3v-.0115zm0-.0116v.0116h.3v-.0116zm0-.0116v.0116h.3v-.0116zm0-.0117v.0117h.3v-.0117zm0-.0117v.0117h.3v-.0117zm0-.0118v.0118h.3v-.0118zm0-.0118v.0118h.3v-.0118zm0-.0118v.0118h.3v-.0118zm0-.0119v.0119h.3v-.0119zm0-.0119v.0119h.3v-.0119zm0-.012v.012h.3v-.012zm0-.012v.012h.3v-.012zm0-.0121v.0121h.3v-.0121zm0-.012v.012h.3v-.012zm0-.0122v.0122h.3v-.0122zm0-.0122v.0122h.3v-.0122zm0-.0122v.0122h.3v-.0122zm0-.0122v.0122h.3v-.0122zm0-.0123v.0123h.3v-.0123zm0-.0124v.0124h.3v-.0124zm0-.0124v.0124h.3v-.0124zm0-.0124v.0124h.3v-.0124zm0-.0124v.0124h.3v-.0124zm0-.0125v.0125h.3v-.0125zm0-.0126v.0126h.3v-.0126zm0-.0126v.0126h.3v-.0126zm0-.0126v.0126h.3v-.0126zm0-.0126v.0126h.3v-.0126zm0-.0127v.0127h.3v-.0127zm0-.0127v.0127h.3v-.0127zm0-.0128v.0128h.3v-.0128zm0-.0128v.0128h.3v-.0128zm0-.0129v.0129h.3v-.0129zm0-.0128v.0128h.3v-.0128zm0-.013v.013h.3v-.013zm0-.0129v.0129h.3v-.0129zm0-.013v.013h.3v-.013zm0-.013v.013h.3v-.013zm0-.0131v.0131h.3v-.0131zm0-.0131v.0131h.3v-.0131zm0-.0131v.0131h.3v-.0131zm0-.0132v.0132h.3v-.0132zm0-.0132v.0132h.3v-.0132zm0-.0132v.0132h.3v-.0132zm0-.0133v.0133h.3v-.0133zm0-.0133v.0133h.3v-.0133zm0-.0133v.0133h.3v-.0133zm0-.0134v.0134h.3v-.0134zm0-.0134v.0134h.3v-.0134zm0-.0135v.0135h.3v-.0135zm0-.0134v.0134h.3v-.0134zm0-.0135v.0135h.3v-.0135zm0-.0136v.0136h.3v-.0136zm0-.0135v.0135h.3v-.0135zm0-.0136v.0136h.3v-.0136zm0-.0137v.0137h.3v-.0137zm0-.0136v.0136h.3v-.0136zm0-.0137v.0137h.3v-.0137zm0-.0138v.0138h.3v-.0138zm0-.0137v.0137h.3v-.0137zm0-.0138v.0138h.3v-.0138zm0-.0138v.0138h.3v-.0138zm0-.0139v.0139h.3v-.0139zm0-.0139v.0139h.3v-.0139zm0-.0139v.0139h.3v-.0139zm0-.0139v.0139h.3v-.0139zm0-.014v.014h.3v-.014zm0-.014v.014h.3v-.014zm0-.014v.014h.3v-.014zm0-.0141v.0141h.3v-.0141zm0-.014v.014h.3v-.014zm0-.0141v.0141h.3v-.0141zm0-.0142v.0142h.3v-.0142zm0-.0142v.0142h.3v-.0142zm0-.0141v.0141h.3v-.0141zm0-.0143v.0143h.3v-.0143zm0-.0142v.0142h.3v-.0142zm0-.0143v.0143h.3v-.0143zm0-.0143v.0143h.3v-.0143zm0-.0143v.0143h.3v-.0143zm0-.0144v.0144h.3v-.0144zm0-.0143v.0143h.3v-.0143zm0-.0144v.0144h.3v-.0144zm0-.0145v.0145h.3v-.0145zm0-.0144v.0144h.3v-.0144zm0-.0145v.0145h.3v-.0145zm0-.0145v.0145h.3v-.0145zm0-.0145v.0145h.3v-.0145zm0-.0146v.0146h.3v-.0146zm0-.0145v.0145h.3v-.0145zm0-.0146v.0146h.3v-.0146zm0-.0147v.0147h.3v-.0147zm0-.0146v.0146h.3v-.0146zm0-.0147v.0147h.3v-.0147zm0-.0146v.0146h.3v-.0146zm0-.0148v.0148h.3v-.0148zm0-.0147v.0147h.3v-.0147zm0-.0147v.0147h.3v-.0147zm0-.0148v.0148h.3v-.0148zm0-.0148v.0148h.3v-.0148zm0-.0148v.0148h.3v-.0148zm0-.0149v.0149h.3v-.0149zm0-.0148v.0148h.3v-.0148zm0-.0149v.0149h.3v-.0149zm0-.0149v.0149h.3v-.0149zm0-.0149v.0149h.3v-.0149zm0-.015v.015h.3v-.015zm0-.0149v.0149h.3v-.0149zm0-.015v.015h.3v-.015zm0-.015v.015h.3v-.015zm0-.015v.015h.3v-.015zm0-.015v.015h.3v-.015zm0-.0151v.0151h.3v-.0151zm0-.0151v.0151h.3v-.0151zm0-.0151v.0151h.3v-.0151zm0-.0151v.0151h.3v-.0151zm0-.0151v.0151h.3v-.0151zm0-.0151v.0151h.3v-.0151zm0-.0152v.0152h.3v-.0152zm0-.0152v.0152h.3v-.0152zm0-.0151v.0151h.3v-.0151zm0-.0152v.0152h.3v-.0152zm0-.0153v.0153h.3v-.0153zm0-.0152v.0152h.3v-.0152zm0-.0153v.0153h.3v-.0153zm0-.0152v.0152h.3v-.0152zm0-.0153v.0153h.3v-.0153zm0-.0153v.0153h.3v-.0153zm0-.0153v.0153h.3v-.0153zm0-.0153v.0153h.3v-.0153zm0-.0154v.0154h.3v-.0154zm0-.0153v.0153h.3v-.0153zm0-.0154v.0154h.3v-.0154zm0-.0154v.0154h.3v-.0154zm0-.0154v.0154h.3v-.0154zm0-.0154v.0154h.3v-.0154zm0-.0154v.0154h.3v-.0154zm0-.0154v.0154h.3v-.0154zm0-.0155v.0155h.3v-.0155zm0-.0154v.0154h.3v-.0154zm0-.0155v.0155h.3v-.0155zm0-.0155v.0155h.3v-.0155zm0-.0154v.0154h.3v-.0154zm0-.0155v.0155h.3v-.0155zm0-.0156v.0156h.3v-.0156zm0-.0155v.0155h.3v-.0155zm0-.0155v.0155h.3v-.0155zm0-.0155v.0155h.3v-.0155zm0-.0156v.0156h.3v-.0156zm0-.0155v.0155h.3v-.0155zm0-.0156v.0156h.3v-.0156zm0-.0156v.0156h.3v-.0156zm0-.0156v.0156h.3v-.0156zm0-.0156v.0156h.3v-.0156zm0-.0156v.0156h.3v-.0156zm0-.0156v.0156h.3v-.0156zm0-.0156v.0156h.3v-.0156zm0-.0156v.0156h.3v-.0156zm0-.0157v.0157h.3v-.0157zm0-.0156v.0156h.3v-.0156zm0-.0156v.0156h.3v-.0156zm0-.0157v.0157h.3v-.0157zm0-.0157v.0157h.3v-.0157zm0-.0156v.0156h.3v-.0156zm0-.0157v.0157h.3v-.0157zm0-.0157v.0157h.3v-.0157zm0-.0157v.0157h.3v-.0157zm0-.0156v.0156h.3v-.0156zm0-.0157v.0157h.3v-.0157zm0-.0157v.0157h.3v-.0157zm0-.0157v.0157h.3v-.0157zm0-.0157v.0157h.3v-.0157zm0-.0158v.0158h.3v-.0158zm0-.0157v.0157h.3v-.0157zm0-.0157v.0157h.3v-.0157zm0-.0157v.0157h.3v-.0157zm0-.0157v.0157h.3v-.0157zm0-.0158v.0158h.3v-.0158zm0-.0157v.0157h.3v-.0157zm0-.0157v.0157h.3v-.0157zm0-.0157v.0157h.3v-.0157zm0-.0158v.0158h.3v-.0158zm0-.0157v.0157h.3v-.0157zm0-.0158v.0158h.3v-.0158zm0-.0157v.0157h.3v-.0157zm0-.0157v.0157h.3v-.0157zm0-.0158v.0158h.3v-.0158zm0-.0157v.0157h.3v-.0157zm0-.0158v.0158h.3v-.0158zm0-.0157v.0157h.3v-.0157zm0-.0157v.0157h.3v-.0157zm0-.0158v.0158h.3v-.0158zm0-.0157v.0157h.3v-.0157zm0-.0158v.0158h.3v-.0158zm0-.0157v.0157h.3v-.0157zm0-.0157v.0157h.3v-.0157zm0-.0158v.0158h.3v-.0158zm0-.0157v.0157h.3v-.0157zm0-.0157v.0157h.3v-.0157zm0-.0157v.0157h.3v-.0157zm0-.0158v.0158h.3v-.0158zm0-.0157v.0157h.3v-.0157zm0-.0157v.0157h.3v-.0157zm0-.0157v.0157h.3v-.0157zm0-.0157v.0157h.3v-.0157zm0-.0157v.0157h.3v-.0157zm0-.0157v.0157h.3v-.0157zm0-.0157v.0157h.3v-.0157zm0-.0157v.0157h.3v-.0157zm0-.0157v.0157h.3v-.0157zm0-.0157v.0157h.3v-.0157zm0-.0157v.0157h.3v-.0157zm0-.0157v.0157h.3v-.0157zm0-.0156v.0156h.3v-.0156zm0-.0157v.0157h.3v-.0157zm0-.0156v.0156h.3v-.0156zm0-.0157v.0157h.3v-.0157zm0-.0156v.0156h.3v-.0156zm0-.0157v.0157h.3v-.0157zm0-.0156v.0156h.3v-.0156zm0-.0156v.0156h.3v-.0156zm0-.0156v.0156h.3v-.0156zm0-.0156v.0156h.3v-.0156zm0-.0156v.0156h.3v-.0156zm0-.0156v.0156h.3v-.0156zm0-.0156v.0156h.3v-.0156zm0-.0156v.0156h.3v-.0156zm0-.0155v.0155h.3v-.0155zm0-.0156v.0156h.3v-.0156zm0-.0155v.0155h.3v-.0155zm0-.0156v.0156h.3v-.0156zm0-.0155v.0155h.3v-.0155zm0-.0155v.0155h.3v-.0155zm0-.0155v.0155h.3v-.0155zm0-.0155v.0155h.3v-.0155zm0-.0155v.0155h.3v-.0155zm0-.0154v.0154h.3v-.0154zm0-.0155v.0155h.3v-.0155zm0-.0154v.0154h.3v-.0154zm0-.0155v.0155h.3v-.0155zm0-.0154v.0154h.3v-.0154zm0-.0154v.0154h.3v-.0154zm0-.0154v.0154h.3v-.0154zm0-.0154v.0154h.3v-.0154zm0-.0153v.0153h.3v-.0153zm0-.0154v.0154h.3v-.0154zm0-.0153v.0153h.3v-.0153zm0-.0154v.0154h.3v-.0154zm0-.0153v.0153h.3v-.0153zm0-.0153v.0153h.3v-.0153zm0-.0153v.0153h.3v-.0153zm0-.0152v.0152h.3v-.0152zm0-.0153v.0153h.3v-.0153zm0-.0152v.0152h.3v-.0152zm0-.0153v.0153h.3v-.0153zm0-.0152v.0152h.3v-.0152zm0-.0152v.0152h.3v-.0152zm0-.0151v.0151h.3v-.0151zm0-.0152v.0152h.3v-.0152zm0-.0151v.0151h.3v-.0151zm0-.0152v.0152h.3v-.0152zm0-.0151v.0151h.3v-.0151zm0-.0151v.0151h.3v-.0151zm0-.015v.015h.3v-.015zm0-.0151v.0151h.3v-.0151zm0-.015v.015h.3v-.015zm0-.0151v.0151h.3v-.0151zm0-.015v.015h.3v-.015zm0-.0149v.0149h.3v-.0149zm0-.015v.015h.3v-.015zm0-.0149v.0149h.3v-.0149zm0-.015v.015h.3v-.015zm0-.0149v.0149h.3v-.0149zm0-.0149v.0149h.3v-.0149zm0-.0148v.0148h.3v-.0148zm0-.0149v.0149h.3v-.0149zm0-.0148v.0148h.3v-.0148zm0-.0148v.0148h.3v-.0148zm0-.0148v.0148h.3v-.0148zm0-.0147v.0147h.3v-.0147zm0-.0148v.0148h.3v-.0148zm0-.0147v.0147h.3v-.0147zm0-.0147v.0147h.3v-.0147zm0-.0147v.0147h.3v-.0147zm0-.0146v.0146h.3v-.0146zm0-.0146v.0146h.3v-.0146zm0-.0146v.0146h.3v-.0146zm0-.0146v.0146h.3v-.0146zm0-.0146v.0146h.3v-.0146zm0-.0145v.0145h.3v-.0145zm0-.0145v.0145h.3v-.0145zm0-.0145v.0145h.3v-.0145zm0-.0144v.0144h.3v-.0144zm0-.0145v.0145h.3v-.0145zm0-.0144v.0144h.3v-.0144zm0-.0144v.0144h.3v-.0144zm0-.0143v.0143h.3v-.0143zm0-.0144v.0144h.3v-.0144zm0-.0143v.0143h.3v-.0143zm0-.0142v.0142h.3v-.0142zm0-.0143v.0143h.3v-.0143zm0-.0142v.0142h.3v-.0142zm0-.0142v.0142h.3v-.0142zm0-.0142v.0142h.3v-.0142zm0-.0141v.0141h.3v-.0141zm0-.0141v.0141h.3v-.0141zm0-.0141v.0141h.3v-.0141zm0-.0141v.0141h.3v-.0141zm0-.014v.014h.3v-.014zm0-.014v.014h.3v-.014zm0-.014v.014h.3v-.014zm0-.014v.014h.3v-.014zm0-.0139v.0139h.3v-.0139zm0-.0139v.0139h.3v-.0139zm0-.0138v.0138h.3v-.0138zm0-.0138v.0138h.3v-.0138zm0-.0138v.0138h.3v-.0138zm0-.0138v.0138h.3v-.0138zm0-.0137v.0137h.3v-.0137zm0-.0137v.0137h.3v-.0137zm0-.0137v.0137h.3v-.0137zm0-.0137v.0137h.3v-.0137zm0-.0136v.0136h.3v-.0136zm0-.0136v.0136h.3v-.0136zm0-.0135v.0135h.3v-.0135zm0-.0135v.0135h.3v-.0135zm0-.0135v.0135h.3v-.0135zm0-.0134v.0134h.3v-.0134zm0-.0135v.0135h.3v-.0135zm0-.0133v.0133h.3v-.0133zm0-.0134v.0134h.3v-.0134zm0-.0133v.0133h.3v-.0133zm0-.0133v.0133h.3v-.0133zm0-.0132v.0132h.3v-.0132zm0-.0132v.0132h.3v-.0132zm0-.0132v.0132h.3v-.0132zm0-.0132v.0132h.3v-.0132zm0-.0131v.0131h.3v-.0131zm0-.0038v.0038h.3v-.0038zm.15-.15h-.5751v.3h.5751zm-.5751 0c-.0076 0-.0151-.0001-.0226-.0002l-.0046.3c.0091.0001.0181.0002.0272.0002z"/><path clip-rule="evenodd" d="m15.9922 5.33926h.3281c.195 0 .3531.1581.3531.35312v3.54688h.6v-3.54688c0-.52639-.4267-.95312-.9531-.95312h-.3281c-.5264 0-.9531.42673-.9531.95312v3.54688h.6v-3.54688c0-.19502.1581-.35312.3531-.35312z" fill-rule="evenodd"/><path d="m16.6734 9.23926h-.2v.2h.2zm.6 0v.2h.2v-.2zm-2.2343 0h-.2v.2h.2zm.6 0v.2h.2v-.2zm.6812-4.1h-.3281v.4h.3281zm.5531.55312c0-.30548-.2476-.55312-.5531-.55312v.4c.0846 0 .1531.06855.1531.15312zm0 3.54688v-3.54688h-.4v3.54688zm-.2.2h.6v-.4h-.6zm.8-.2v-3.54688h-.4v3.54688zm0-3.54688c0-.63685-.5162-1.15312-1.1531-1.15312v.4c.416 0 .7531.33718.7531.75312zm-1.1531-1.15312h-.3281v.4h.3281zm-.3281 0c-.6369 0-1.1531.51627-1.1531 1.15312h.4c0-.41594.3371-.75312.7531-.75312zm-1.1531 1.15312v3.54688h.4v-3.54688zm.2 3.74688h.6v-.4h-.6zm.4-3.74688v3.54688h.4v-3.54688zm.5531-.55312c-.3055 0-.5531.24764-.5531.55312h.4c0-.08457.0685-.15312.1531-.15312z" mask="url(#b)"/><path clip-rule="evenodd" d="m12.7109 5.33926h.3282c.195 0 .3531.1581.3531.35312v3.54688h.6v-3.54688c0-.52639-.4267-.95312-.9531-.95312h-.3282c-.5264 0-.9531.42673-.9531.95312v3.54688h.6v-3.54688c0-.19502.1581-.35312.3531-.35312z" fill-rule="evenodd"/><path d="m13.3922 9.23926h-.2v.2h.2zm.6 0v.2h.2v-.2zm-2.2344 0h-.2v.2h.2zm.6 0v.2h.2v-.2zm.6813-4.1h-.3282v.4h.3282zm.5531.55312c0-.30548-.2477-.55312-.5531-.55312v.4c.0845 0 .1531.06855.1531.15312zm0 3.54688v-3.54688h-.4v3.54688zm-.2.2h.6v-.4h-.6zm.8-.2v-3.54688h-.4v3.54688zm0-3.54688c0-.63685-.5163-1.15312-1.1531-1.15312v.4c.4159 0 .7531.33718.7531.75312zm-1.1531-1.15312h-.3282v.4h.3282zm-.3282 0c-.6368 0-1.1531.51627-1.1531 1.15312h.4c0-.41594.3372-.75312.7531-.75312zm-1.1531 1.15312v3.54688h.4v-3.54688zm.2 3.74688h.6v-.4h-.6zm.4-3.74688v3.54688h.4v-3.54688zm.5531-.55312c-.3054 0-.5531.24764-.5531.55312h.4c0-.08457.0686-.15312.1531-.15312z" mask="url(#c)"/></g></svg>