<svg width="40" height="25" viewBox="0 0 40 25" fill="none" xmlns="http://www.w3.org/2000/svg">
<path d="M39.0562 11.0377C39.0497 11.0292 39.0471 11.0188 39.0406 11.0103L33.8147 4.80454C33.6906 4.65756 33.5077 4.57264 33.315 4.57264H27.4359V0.653235C27.4359 0.292649 27.1432 0 26.7826 0H16.504H10.9319H0.653235C0.292649 0 0 0.292649 0 0.653235V15.6776V19.597C0 19.9576 0.292649 20.2503 0.653235 20.2503H4.43808C4.39366 20.4652 4.36361 20.6827 4.36361 20.9035C4.36361 22.7045 5.82881 24.1697 7.62978 24.1697C9.43075 24.1697 10.896 22.7045 10.896 20.9035C10.896 20.6834 10.8666 20.4658 10.8221 20.2503H28.8161C28.7717 20.4658 28.7423 20.6834 28.7423 20.9035C28.7423 22.7045 30.2075 24.1697 32.0085 24.1697C33.8095 24.1697 35.2747 22.7045 35.2747 20.9035C35.2747 20.6834 35.2453 20.4658 35.2009 20.2503H38.5408C38.9014 20.2503 39.1941 19.9576 39.1941 19.597V11.4963C39.196 11.4741 39.2071 11.4545 39.2071 11.4316C39.2071 11.2794 39.1438 11.1488 39.0562 11.0377ZM37.137 10.7784H32.6617V8.49205H35.2113L37.137 10.7784ZM15.8507 1.30647V5.64133L13.9648 4.87052C13.8852 4.83851 13.8015 4.82218 13.7179 4.82218C13.6343 4.82218 13.55 4.83851 13.471 4.87052L11.5851 5.64133V1.30647H15.8507ZM1.30647 1.30647H10.2786V6.614C10.2786 6.83153 10.3871 7.03534 10.5674 7.15618C10.7477 7.27703 10.9763 7.30055 11.1788 7.2189L13.7179 6.18091L16.257 7.2189C16.3367 7.25156 16.4204 7.26723 16.504 7.26723C16.632 7.26723 16.7587 7.22935 16.8685 7.15618C17.0488 7.03468 17.1572 6.83153 17.1572 6.614V1.30647H26.1294V5.22588V15.0244H1.30647V1.30647ZM7.62978 22.8632C6.54933 22.8632 5.67008 21.984 5.67008 20.9035C5.67008 20.5573 5.76022 20.2294 5.94443 19.9191C6.28542 19.3175 6.93082 18.9438 7.62978 18.9438C7.80419 18.9438 7.97534 18.9673 8.13996 19.0117C8.46853 19.1012 8.76902 19.275 9.01072 19.5154C9.13157 19.6356 9.23674 19.7721 9.32362 19.923C9.32362 19.923 9.32362 19.923 9.32362 19.9237C9.49999 20.2294 9.58948 20.5592 9.58948 20.9035C9.58948 21.984 8.71023 22.8632 7.62978 22.8632ZM32.0085 22.8632C30.928 22.8632 30.0488 21.984 30.0488 20.9035C30.0488 20.5586 30.1383 20.2287 30.3147 19.923C30.6615 19.3188 31.3108 18.9438 32.0085 18.9438C32.1829 18.9438 32.3541 18.9673 32.5187 19.0117C32.8472 19.1012 33.1477 19.275 33.3894 19.5154C33.5103 19.6356 33.6154 19.7721 33.7023 19.923C33.7023 19.923 33.7023 19.923 33.7023 19.9237C33.8787 20.2287 33.9682 20.5586 33.9682 20.9035C33.9682 21.984 33.0889 22.8632 32.0085 22.8632ZM34.6195 18.9438C34.6156 18.9386 34.6103 18.9334 34.6058 18.9281C34.579 18.8929 34.5496 18.8621 34.5215 18.8282C34.4627 18.757 34.4039 18.6871 34.3399 18.6218C34.3033 18.5845 34.2641 18.5506 34.2262 18.5153C34.1655 18.4591 34.1041 18.4036 34.0394 18.352C33.9969 18.318 33.9525 18.2866 33.9081 18.2553C33.8428 18.2083 33.7768 18.1638 33.7082 18.122C33.6612 18.0933 33.6135 18.0659 33.5652 18.0397C33.4946 18.0012 33.4227 17.9666 33.3496 17.9332C33.2999 17.911 33.2509 17.8888 33.2 17.8686C33.1229 17.8385 33.0445 17.8124 32.9648 17.7882C32.9152 17.7732 32.8668 17.7562 32.8159 17.7432C32.7277 17.7203 32.6382 17.704 32.5474 17.6889C32.5043 17.6818 32.4612 17.6713 32.4174 17.6654C32.2829 17.6478 32.1463 17.6373 32.0085 17.6373C31.8707 17.6373 31.7341 17.6478 31.5989 17.6648C31.5551 17.6706 31.512 17.6804 31.4689 17.6883C31.3781 17.7033 31.2886 17.7196 31.2004 17.7425C31.1501 17.7556 31.1018 17.7719 31.0515 17.7876C30.9718 17.8117 30.8934 17.8379 30.8163 17.8679C30.7654 17.8882 30.7164 17.9097 30.6667 17.9326C30.5936 17.9653 30.5217 18.0005 30.4512 18.0391C30.4028 18.0659 30.3552 18.0933 30.3081 18.1214C30.2402 18.1632 30.1736 18.2076 30.1089 18.2546C30.0645 18.2866 30.02 18.318 29.9776 18.352C29.9129 18.4036 29.8515 18.4591 29.7908 18.5153C29.7522 18.5506 29.7137 18.5845 29.6771 18.6218C29.6124 18.6877 29.5536 18.7576 29.4942 18.8288C29.4668 18.8621 29.4374 18.8928 29.4112 18.9275C29.4067 18.9333 29.4014 18.9379 29.3975 18.9438H10.2408C10.2368 18.9386 10.2316 18.9334 10.227 18.9281C10.2003 18.8929 10.1709 18.8621 10.1428 18.8282C10.084 18.757 10.0252 18.6871 9.96117 18.6218C9.92459 18.5845 9.8854 18.5506 9.84751 18.5153C9.78676 18.4591 9.72536 18.4036 9.66069 18.352C9.61823 18.318 9.5738 18.2866 9.52938 18.2553C9.46406 18.2083 9.39808 18.1638 9.3295 18.122C9.28246 18.0933 9.23478 18.0659 9.18644 18.0397C9.11589 18.0012 9.04403 17.9666 8.97087 17.9332C8.92122 17.911 8.87223 17.8888 8.82128 17.8686C8.7442 17.8385 8.66581 17.8124 8.58611 17.7882C8.53647 17.7732 8.48813 17.7562 8.43718 17.7432C8.34899 17.7203 8.25884 17.704 8.1687 17.6889C8.12558 17.6818 8.08247 17.6713 8.0387 17.6654C7.90348 17.6484 7.76696 17.638 7.62913 17.638C7.49064 17.638 7.35411 17.6484 7.21889 17.6654C7.17317 17.6713 7.1294 17.6818 7.08368 17.6896C6.99549 17.7046 6.9073 17.7203 6.82108 17.7432C6.76686 17.7569 6.71525 17.7745 6.66234 17.7908C6.58722 17.8144 6.51275 17.8379 6.44024 17.8666C6.38406 17.8882 6.32984 17.913 6.27497 17.9378C6.20965 17.9679 6.14498 17.9992 6.08227 18.0332C6.02544 18.0639 5.97056 18.0959 5.91569 18.1292C5.85886 18.1645 5.80399 18.2017 5.74912 18.2403C5.69359 18.2795 5.63872 18.3193 5.58581 18.3618C5.53682 18.4016 5.49044 18.4434 5.44406 18.4865C5.3918 18.5336 5.33954 18.58 5.29055 18.6309C5.24547 18.6773 5.20497 18.7276 5.16317 18.7772C5.11875 18.8288 5.07302 18.8785 5.03187 18.9334C5.02991 18.9366 5.02664 18.9399 5.02337 18.9438H1.30647V16.3309H26.7826C27.1432 16.3309 27.4359 16.0382 27.4359 15.6776V5.87911H33.0112L34.1113 7.18558H32.0085C31.6479 7.18558 31.3553 7.47823 31.3553 7.83881V11.4316C31.3553 11.7922 31.6479 12.0848 32.0085 12.0848H37.8876V18.9438H34.6195Z" fill="black"/>
</svg>
